<?xml version="1.0" encoding="utf-8"?>
<!-- Generator: Adobe Illustrator 26.0.2, SVG Export Plug-In . SVG Version: 6.00 Build 0)  -->
<svg version="1.1" id="Layer_1" xmlns="http://www.w3.org/2000/svg" xmlns:xlink="http://www.w3.org/1999/xlink" x="0px" y="0px"
	 viewBox="0 0 841.9 595.3" style="enable-background:new 0 0 841.9 595.3;" xml:space="preserve">
<style type="text/css">
	.st0{fill:#5E70A2;stroke:#F5F5F5;stroke-width:2;stroke-miterlimit:10;}
</style>
<g>
	<path class="st0" d="M663.6,359.4c-2.8,8.2-7.3,14.9-16.3,17.1c-2.8,0.7-5.8,0.9-8.8,0.9c-11.8,0.1-23.7,0.1-35.5,0
		c-2.9,0-4.3,0.7-5.2,3.8c-5.3,17.1-20.6,28.3-38.2,28.2c-17.6-0.1-32.5-11.1-37.8-28.1c-0.9-2.9-2.1-3.9-5.1-3.9
		c-61.7,0.1-123.5,0.1-185.2,0c-3,0-4.3,0.9-5.2,3.9c-5.3,17.1-20.7,28.3-38.2,28.1c-17.6-0.2-32.5-11.2-37.7-28.2
		c-0.9-3-2.2-3.9-5.2-3.8c-10.8,0.2-21.5,0.1-32.3,0c-17.9-0.1-28.3-10.7-28.3-28.6c0-37.7,0-75.5,0-113.2c0-29,20.2-49.6,49.3-49.6
		c116.5-0.1,232.9-0.1,349.4,0c25.2,0,43,11.8,53.3,34.7c8.2,18.3,16.4,36.6,24.5,55c1.2,2.8,1.7,5.9,2.5,8.9
		C663.6,309.5,663.6,334.5,663.6,359.4z M647.7,289.1c-12.6-1.1-24.7-2.1-36.8-3.1c-19.3-1.5-38.5-4-57.8-4.1
		c-99.9-0.4-199.9-0.2-299.8-0.2c-1.9,0-3.8,0.1-5.6-0.2c-4.1-0.7-6.9-3.2-6.9-7.5c-0.1-16.2-0.1-32.4,0-48.6c0-4.3,2.8-6.8,7.1-7.3
		c2-0.2,4-0.2,6.1-0.2c87,0,174,0,261,0c24.1,0,48.3,0.8,72.3-3.5c7.5-1.3,15.1-2,23.5-3.1c-8.9-7.6-18.4-9.4-28.7-9.4
		c-90.4,0.1-180.9,0-271.3,0c-25.6,0-51.1-0.1-76.7,0c-20.3,0.1-33.4,13.2-33.4,33.4c-0.1,37.9,0,75.8,0,113.7
		c0,8.7,3.6,12.4,12.1,12.4c10.9,0.1,21.8-0.1,32.7,0.1c3.1,0.1,4.2-1.1,5.1-4c5.1-16.7,20.6-28,37.9-28c17.3,0,32.8,11.3,37.8,28
		c1,3.2,2.5,3.9,5.6,3.9c61.6-0.1,123.2-0.1,184.8,0c3.3,0,4.5-1.1,5.4-4.1c3.3-10.8,10.2-18.8,20.4-23.7
		c22.3-10.7,47.8,0.5,55.5,24c0.5,1.5,2.4,3.5,3.6,3.6c13.1,0.3,26.2,0.2,39.3,0.1c4.4,0,6.7-2.6,6.7-6.7
		C647.7,333,647.7,311.4,647.7,289.1z M567.9,266.4c25.2,2.1,49.6,4.1,74.8,6.2c-7-15.5-13.6-30-20.3-44.5c-0.4-0.9-2.5-1.6-3.8-1.5
		c-15.9,1.8-31.8,3.8-47.7,5.9c-1.1,0.1-2.8,1.7-2.9,2.7C567.8,245.4,567.9,255.7,567.9,266.4z M480.3,265.6c24.1,0,47.5,0,71.3,0
		c0-10.6,0-20.9,0-31.3c-23.9,0-47.5,0-71.3,0C480.3,244.8,480.3,255,480.3,265.6z M392,234.1c-21.3,0-42.2,0-63.3,0
		c0,10.6,0,20.9,0,31.4c21.2,0,42.1,0,63.3,0C392,255.1,392,244.9,392,234.1z M463.9,234.2c-18.8,0-37.1,0-55.3,0
		c0,10.7,0,21,0,31.3c18.6,0,36.9,0,55.3,0C463.9,254.9,463.9,244.7,463.9,234.2z M256.8,265.6c18.6,0,36.8,0,55.3,0
		c0-10.5,0-20.9,0-31.4c-18.5,0-36.8,0-55.3,0C256.8,244.7,256.8,254.9,256.8,265.6z M288.6,393.3c13.2-0.1,23.7-10.7,23.7-23.9
		c0-13.1-10.8-23.9-23.8-23.9c-13.1-0.1-24.2,11.2-24,24.2C264.7,383,275.4,393.4,288.6,393.3z M559.9,393.3
		c13.1,0,23.8-10.6,23.9-23.7c0.1-13-10.7-23.9-23.7-24c-13.1-0.2-24.1,10.9-24,24.1C536.1,382.9,546.7,393.4,559.9,393.3z"/>
	<path class="st0" d="M647.7,289.1c0,22.3,0.1,44,0,65.6c0,4.2-2.3,6.7-6.7,6.7c-13.1,0.1-26.2,0.1-39.3-0.1c-1.3,0-3.2-2.1-3.6-3.6
		c-7.7-23.5-33.2-34.7-55.5-24c-10.2,4.9-17.1,12.8-20.4,23.7c-0.9,3-2.1,4.2-5.4,4.1c-61.6-0.1-123.2-0.1-184.8,0
		c-3.1,0-4.6-0.7-5.6-3.9c-5.1-16.8-20.5-28-37.8-28c-17.3,0-32.8,11.3-37.9,28c-0.9,2.9-2,4-5.1,4c-10.9-0.2-21.8,0-32.7-0.1
		c-8.5,0-12.1-3.8-12.1-12.4c0-37.9-0.1-75.8,0-113.7c0-20.2,13.1-33.3,33.4-33.4c25.6-0.1,51.1,0,76.7,0c90.4,0,180.9,0,271.3,0
		c10.3,0,19.8,1.8,28.7,9.4c-8.4,1.1-16,1.8-23.5,3.1c-24,4.3-48.1,3.5-72.3,3.5c-87,0-174,0-261,0c-2,0-4.1,0-6.1,0.2
		c-4.3,0.5-7.1,3-7.1,7.3c-0.2,16.2-0.2,32.4,0,48.6c0,4.4,2.8,6.8,6.9,7.5c1.8,0.3,3.7,0.2,5.6,0.2c99.9,0,199.9-0.2,299.8,0.2
		c19.3,0.1,38.5,2.6,57.8,4.1C623,286.9,635.1,288,647.7,289.1z"/>
	<path class="st0" d="M567.9,266.4c0-10.7-0.1-21,0.1-31.2c0-0.9,1.8-2.5,2.9-2.7c15.9-2.1,31.8-4.1,47.7-5.9
		c1.2-0.1,3.3,0.6,3.8,1.5c6.8,14.5,13.3,29.1,20.3,44.5C617.5,270.5,593.1,268.5,567.9,266.4z"/>
	<path class="st0" d="M480.3,265.6c0-10.5,0-20.8,0-31.3c23.7,0,47.3,0,71.3,0c0,10.4,0,20.7,0,31.3
		C527.8,265.6,504.4,265.6,480.3,265.6z"/>
	<path class="st0" d="M392,234.1c0,10.7,0,20.9,0,31.4c-21.2,0-42.1,0-63.3,0c0-10.5,0-20.8,0-31.4
		C349.8,234.1,370.7,234.1,392,234.1z"/>
	<path class="st0" d="M463.9,234.2c0,10.5,0,20.7,0,31.3c-18.5,0-36.7,0-55.3,0c0-10.3,0-20.6,0-31.3
		C426.8,234.2,445.1,234.2,463.9,234.2z"/>
	<path class="st0" d="M256.8,265.6c0-10.7,0-20.9,0-31.4c18.5,0,36.8,0,55.3,0c0,10.5,0,20.9,0,31.4
		C293.6,265.6,275.4,265.6,256.8,265.6z"/>
	<path class="st0" d="M288.6,393.3c-13.2,0.1-23.8-10.3-24.1-23.5c-0.3-13,10.9-24.3,24-24.2c13,0.1,23.7,10.8,23.8,23.9
		C312.3,382.6,301.8,393.3,288.6,393.3z"/>
	<path class="st0" d="M559.9,393.3c-13.2,0-23.8-10.4-23.9-23.7c-0.1-13.2,10.9-24.3,24-24.1c13,0.2,23.8,11.1,23.7,24
		C583.7,382.7,573,393.3,559.9,393.3z"/>
</g>
</svg>
