<?xml version="1.0" encoding="utf-8"?>
<!-- Generator: Adobe Illustrator 26.0.2, SVG Export Plug-In . SVG Version: 6.00 Build 0)  -->
<svg version="1.1" id="Layer_1" xmlns="http://www.w3.org/2000/svg" xmlns:xlink="http://www.w3.org/1999/xlink" x="0px" y="0px"
	 viewBox="0 0 841.9 595.3" style="enable-background:new 0 0 841.9 595.3;" xml:space="preserve">
<style type="text/css">
	.st0{fill:#5E70A2;stroke:#F5F5F5;stroke-width:2;stroke-miterlimit:10;}
</style>
<image style="overflow:visible;" width="512" height="512" xlink:href="../../../../../../Downloads/flag.png"  transform="matrix(0.75 0 0 0.75 -703.3855 -170.9515)">
</image>
<g>
	<path class="st0" d="M430.8,391.3c13.4,13.5,28,24.6,44.9,32.4c12.4,5.7,25.3,9.1,39.1,8.8c18.9-0.4,35.7-7.2,51.4-17
		c10.9-6.8,20.9-14.6,29.8-24c-0.4-0.5-0.7-0.9-1-1.2c-12.6-12.5-26.7-23-42.7-30.5c-15.5-7.3-31.7-11.2-48.9-8.8
		C474.3,355,451.6,371,430.8,391.3z M420.8,216.4c-0.8,0.6-1.2,1-1.6,1.3c-12.3,12.2-22.5,25.8-30,41.4c-10.9,22.5-13,45.7-4,69.4
		c5.5,14.5,13.6,27.4,23.4,39.3c3.8,4.5,7.9,8.8,12,13.3c15.3-15.2,27.5-31.7,35.1-51.3c6.3-16.4,8.1-33.2,3.7-50.4
		C453,254.6,438.7,234.7,420.8,216.4z M544.3,267.8c-16.6-1.3-43.1,3.6-59.7,10.7c-3.3,1.4-4.1,3-3.5,6.3c2,10.4,1.6,21-0.5,31.3
		c-1.4,6.9-3.4,13.6-5.3,20.7c18.3-6.8,36.9-9.3,56.2-5.4C540.7,311.1,544.6,290,544.3,267.8z M366.5,337.2
		c-6.9-18.4-9.3-36.4-6.2-55c0.1-0.8-1.3-2.4-2.3-2.9c-16.1-7.2-33.2-10.5-50.7-11.5c-3.4-0.2-6.7,0-10.3,0
		c-0.2,22.4,3.6,43.5,12.8,63.8C329,327.7,347.6,330.1,366.5,337.2z M391,433.7c8.5,12.1,17.9,23.6,29.7,33
		c11.8-9.6,21.3-21,29.6-33c-10-7.7-19.9-15.3-29.6-22.7C411,418.4,401.1,425.9,391,433.7z M420.6,151.2c-4.5,4.5-9.2,9.3-13.7,13.7
		c4.5,4.5,9.2,9.2,13.7,13.7c4.5-4.5,9.2-9.3,13.7-13.7C429.8,160.4,425.1,155.7,420.6,151.2z M358.8,192.3
		c-4.5,4.5-9.2,9.3-13.7,13.7c4.5,4.5,9.1,9.2,13.7,13.8c4.6-4.6,9.3-9.3,13.7-13.8C368.1,201.6,363.4,196.9,358.8,192.3z
		 M482,219.8c4.8-4.8,9.6-9.4,13.8-13.6c-4.5-4.6-9.2-9.3-13.5-13.6c-4.5,4.4-9.2,9.1-13.8,13.7C473,210.8,477.6,215.4,482,219.8z"
		/>
	<path class="st0" d="M244.9,391.2c10.7-10.5,22.4-19.9,35.5-27.2c14.1-7.9,29.1-13.3,45.5-13.7c14.3-0.4,27.8,3.2,40.7,9.3
		c16.1,7.6,30.1,18.1,42.6,30.8c0.3,0.3,0.5,0.7,1,1.3c-20.8,20.1-43.6,36.3-73.1,40.2c-14.9,2-29.1-0.9-42.9-6.5
		c-17-7-31.8-17.4-45.2-30c-1.3-1.2-2.7-2.3-4.1-3.5C244.9,391.6,244.9,391.4,244.9,391.2z"/>
	<path class="st0" d="M430.8,391.3c20.8-20.3,43.5-36.3,72.7-40.4c17.2-2.4,33.4,1.5,48.9,8.8c16.1,7.6,30.2,18,42.7,30.5
		c0.3,0.3,0.6,0.7,1,1.2c-8.9,9.4-18.9,17.2-29.8,24c-15.7,9.8-32.5,16.5-51.4,17c-13.8,0.3-26.7-3.1-39.1-8.8
		C458.8,415.9,444.2,404.8,430.8,391.3z"/>
	<path class="st0" d="M420.8,216.4c17.9,18.2,32.2,38.2,38.5,63c4.4,17.2,2.6,34-3.7,50.4c-7.6,19.6-19.8,36.1-35.1,51.3
		c-4.1-4.5-8.2-8.7-12-13.3c-9.8-11.9-17.9-24.8-23.4-39.3c-9-23.8-6.8-46.9,4-69.4c7.5-15.6,17.7-29.3,30-41.4
		C419.6,217.4,420,217.1,420.8,216.4z"/>
	<path class="st0" d="M544.3,267.8c0.3,22.2-3.6,43.2-12.7,63.6c-19.3-3.8-38-1.4-56.2,5.4c1.8-7.1,3.9-13.9,5.3-20.7
		c2.1-10.4,2.5-20.9,0.5-31.3c-0.6-3.3,0.2-4.9,3.5-6.3C501.1,271.5,527.6,266.5,544.3,267.8z"/>
	<path class="st0" d="M366.5,337.2c-18.9-7.1-37.4-9.5-56.7-5.7c-9.2-20.2-13-41.4-12.8-63.8c3.5,0,6.9-0.2,10.3,0
		c17.6,1,34.6,4.3,50.7,11.5c1,0.5,2.5,2,2.3,2.9C357.2,300.8,359.5,318.8,366.5,337.2z"/>
	<path class="st0" d="M391,433.7c10.2-7.8,20-15.4,29.7-22.8c9.7,7.4,19.6,15,29.6,22.7c-8.3,12.1-17.8,23.4-29.6,33
		C408.9,457.3,399.5,445.8,391,433.7z"/>
	<path class="st0" d="M420.6,151.2c4.5,4.5,9.2,9.3,13.7,13.7c-4.5,4.5-9.2,9.2-13.7,13.7c-4.5-4.5-9.2-9.3-13.7-13.7
		C411.4,160.4,416.1,155.7,420.6,151.2z"/>
	<path class="st0" d="M358.8,192.3c4.5,4.5,9.2,9.3,13.7,13.7c-4.5,4.5-9.2,9.2-13.7,13.8c-4.5-4.5-9.2-9.3-13.7-13.8
		C349.6,201.6,354.3,196.9,358.8,192.3z"/>
	<path class="st0" d="M482,219.8c-4.4-4.4-9.1-9.1-13.5-13.5c4.6-4.5,9.3-9.2,13.8-13.7c4.3,4.3,9,9,13.5,13.6
		C491.6,210.4,486.9,215.1,482,219.8z"/>
</g>
<g>
	<path class="st0" d="M429.8-76.7c-2.8,8.2-7.3,14.9-16.3,17.1c-2.8,0.7-5.8,0.9-8.8,0.9c-11.8,0.1-23.7,0.1-35.5,0
		c-2.9,0-4.3,0.7-5.2,3.8c-5.3,17.1-20.6,28.3-38.2,28.2c-17.6-0.1-32.5-11.1-37.8-28.1c-0.9-2.9-2.1-3.9-5.1-3.9
		c-61.7,0.1-123.5,0.1-185.2,0c-3,0-4.3,0.9-5.2,3.9c-5.3,17.1-20.7,28.3-38.2,28.1C36.7-27,21.8-38,16.6-54.9
		c-0.9-3-2.2-3.9-5.2-3.8c-10.8,0.2-21.5,0.1-32.3,0c-17.9-0.1-28.3-10.7-28.3-28.6c0-37.7,0-75.5,0-113.2c0-29,20.2-49.6,49.3-49.6
		c116.5-0.1,232.9-0.1,349.4,0c25.2,0,43,11.8,53.3,34.7c8.2,18.3,16.4,36.6,24.5,55c1.2,2.8,1.7,5.9,2.5,8.9
		C429.8-126.6,429.8-101.7,429.8-76.7z M413.9-147.1c-12.6-1.1-24.7-2.1-36.8-3.1c-19.3-1.5-38.5-4-57.8-4.1
		c-99.9-0.4-199.9-0.2-299.8-0.2c-1.9,0-3.8,0.1-5.6-0.2c-4.1-0.7-6.9-3.2-6.9-7.5c-0.1-16.2-0.1-32.4,0-48.6c0-4.3,2.8-6.8,7.1-7.3
		c2-0.2,4-0.2,6.1-0.2c87,0,174,0,261,0c24.1,0,48.3,0.8,72.3-3.5c7.5-1.3,15.1-2,23.5-3.1c-8.9-7.6-18.4-9.4-28.7-9.4
		c-90.4,0.1-180.9,0-271.3,0c-25.6,0-51.1-0.1-76.7,0c-20.3,0.1-33.4,13.2-33.4,33.4c-0.1,37.9,0,75.8,0,113.7
		c0,8.7,3.6,12.4,12.1,12.4c10.9,0.1,21.8-0.1,32.7,0.1c3.1,0.1,4.2-1.1,5.1-4c5.1-16.7,20.6-28,37.9-28c17.3,0,32.8,11.3,37.8,28
		c1,3.2,2.5,3.9,5.6,3.9c61.6-0.1,123.2-0.1,184.8,0c3.3,0,4.5-1.1,5.4-4.1c3.3-10.8,10.2-18.8,20.4-23.7
		c22.3-10.7,47.8,0.5,55.5,24c0.5,1.5,2.4,3.5,3.6,3.6c13.1,0.3,26.2,0.2,39.3,0.1c4.4,0,6.7-2.6,6.7-6.7
		C413.9-103.1,413.9-124.8,413.9-147.1z M334.1-169.7c25.2,2.1,49.6,4.1,74.8,6.2c-7-15.5-13.6-30-20.3-44.5
		c-0.4-0.9-2.5-1.6-3.8-1.5c-15.9,1.8-31.8,3.8-47.7,5.9c-1.1,0.1-2.8,1.7-2.9,2.7C334-190.7,334.1-180.5,334.1-169.7z M246.5-170.6
		c24.1,0,47.5,0,71.3,0c0-10.6,0-20.9,0-31.3c-23.9,0-47.5,0-71.3,0C246.5-191.3,246.5-181.1,246.5-170.6z M158.2-202
		c-21.3,0-42.2,0-63.3,0c0,10.6,0,20.9,0,31.4c21.2,0,42.1,0,63.3,0C158.2-181.1,158.2-191.3,158.2-202z M230.1-201.9
		c-18.8,0-37.1,0-55.3,0c0,10.7,0,21,0,31.3c18.6,0,36.9,0,55.3,0C230.1-181.2,230.1-191.4,230.1-201.9z M22.9-170.5
		c18.6,0,36.8,0,55.3,0c0-10.5,0-20.9,0-31.4c-18.5,0-36.8,0-55.3,0C22.9-191.4,22.9-181.2,22.9-170.5z M54.7-42.8
		c13.2-0.1,23.7-10.7,23.7-23.9c0-13.1-10.8-23.9-23.8-23.9c-13.1-0.1-24.2,11.2-24,24.2C30.9-53.1,41.6-42.7,54.7-42.8z
		 M326.1-42.8c13.1,0,23.8-10.6,23.9-23.7c0.1-13-10.7-23.9-23.7-24c-13.1-0.2-24.1,10.9-24,24.1C302.3-53.2,312.9-42.8,326.1-42.8z
		"/>
	<path class="st0" d="M413.9-147.1c0,22.3,0.1,44,0,65.6c0,4.2-2.3,6.7-6.7,6.7c-13.1,0.1-26.2,0.1-39.3-0.1c-1.3,0-3.2-2.1-3.6-3.6
		c-7.7-23.5-33.2-34.7-55.5-24c-10.2,4.9-17.1,12.8-20.4,23.7c-0.9,3-2.1,4.2-5.4,4.1c-61.6-0.1-123.2-0.1-184.8,0
		c-3.1,0-4.6-0.7-5.6-3.9c-5.1-16.8-20.5-28-37.8-28c-17.3,0-32.8,11.3-37.9,28c-0.9,2.9-2,4-5.1,4c-10.9-0.2-21.8,0-32.7-0.1
		c-8.5,0-12.1-3.8-12.1-12.4c0-37.9-0.1-75.8,0-113.7c0-20.2,13.1-33.3,33.4-33.4c25.6-0.1,51.1,0,76.7,0c90.4,0,180.9,0,271.3,0
		c10.3,0,19.8,1.8,28.7,9.4c-8.4,1.1-16,1.8-23.5,3.1c-24,4.3-48.1,3.5-72.3,3.5c-87,0-174,0-261,0c-2,0-4.1,0-6.1,0.2
		c-4.3,0.5-7.1,3-7.1,7.3c-0.2,16.2-0.2,32.4,0,48.6c0,4.4,2.8,6.8,6.9,7.5c1.8,0.3,3.7,0.2,5.6,0.2c99.9,0,199.9-0.2,299.8,0.2
		c19.3,0.1,38.5,2.6,57.8,4.1C389.2-149.2,401.3-148.1,413.9-147.1z"/>
	<path class="st0" d="M334.1-169.7c0-10.7-0.1-21,0.1-31.2c0-0.9,1.8-2.5,2.9-2.7c15.9-2.1,31.8-4.1,47.7-5.9
		c1.2-0.1,3.3,0.6,3.8,1.5c6.8,14.5,13.3,29.1,20.3,44.5C383.6-165.6,359.3-167.6,334.1-169.7z"/>
	<path class="st0" d="M246.5-170.6c0-10.5,0-20.8,0-31.3c23.7,0,47.3,0,71.3,0c0,10.4,0,20.7,0,31.3
		C294-170.6,270.5-170.6,246.5-170.6z"/>
	<path class="st0" d="M158.2-202c0,10.7,0,20.9,0,31.4c-21.2,0-42.1,0-63.3,0c0-10.5,0-20.8,0-31.4C116-202,136.9-202,158.2-202z"/>
	<path class="st0" d="M230.1-201.9c0,10.5,0,20.7,0,31.3c-18.5,0-36.7,0-55.3,0c0-10.3,0-20.6,0-31.3
		C193-201.9,211.2-201.9,230.1-201.9z"/>
	<path class="st0" d="M22.9-170.5c0-10.7,0-20.9,0-31.4c18.5,0,36.8,0,55.3,0c0,10.5,0,20.9,0,31.4
		C59.8-170.5,41.6-170.5,22.9-170.5z"/>
	<path class="st0" d="M54.7-42.8c-13.2,0.1-23.8-10.3-24.1-23.5c-0.3-13,10.9-24.3,24-24.2c13,0.1,23.7,10.8,23.8,23.9
		C78.5-53.5,67.9-42.9,54.7-42.8z"/>
	<path class="st0" d="M326.1-42.8c-13.2,0-23.8-10.4-23.9-23.7c-0.1-13.2,10.9-24.3,24-24.1c13,0.2,23.8,11.1,23.7,24
		C349.9-53.4,339.2-42.8,326.1-42.8z"/>
</g>
</svg>
