<svg id="Layer_1" data-name="Layer 1" xmlns="http://www.w3.org/2000/svg" viewBox="0 0 399.66 399.61"><defs><style>.cls-1{fill:#5e70a2;stroke:#fff;stroke-miterlimit:10;stroke-width:3px;}</style></defs><path class="cls-1" d="M456.54,258.11c0,109.22-89.78,198.86-198.59,198.3C148.47,455.85,59.84,367.1,59.88,258.08c0-109.25,89.74-198.81,198.59-198.28C368,60.34,456.55,149,456.54,258.11Zm-93.26-1.6q0-43.92,0-87.82c0-13-5.51-18.51-18.46-18.51q-87.35,0-174.67,0c-12.74,0-18.5,5.8-18.5,18.62q0,87.82,0,175.64c0,12.77,5.8,18.55,18.61,18.55H344.93c12.61,0,18.34-5.67,18.34-18.16Q363.3,300.67,363.28,256.51Z" transform="translate(-58.38 -58.3)"/><path class="cls-1" d="M363.28,256.51q0,44.16,0,88.32c0,12.49-5.73,18.16-18.34,18.16H170.26c-12.81,0-18.61-5.78-18.61-18.55q0-87.81,0-175.64c0-12.82,5.76-18.62,18.5-18.62q87.33,0,174.67,0c12.95,0,18.45,5.52,18.46,18.51Q363.3,212.6,363.28,256.51Zm-64.12,71.43h31.71c0-20.8.24-41.22-.17-61.64A44.5,44.5,0,0,0,327,250.9c-9.73-23.87-42.29-28.67-58.78-8.88-.65.78-1.46,1.42-3,2.88V232.44H233.8v95.47h31.66c0-16.84,0-33.28,0-49.71a52,52,0,0,1,.68-9.43c1.57-8,9.08-13.77,17.37-13.61,7.91.14,13.05,4.77,14.73,13.51a46.37,46.37,0,0,1,.85,8.4c.1,11,.05,21.95.05,32.92Zm-83.54.14V232.59H184.38v95.49ZM200,219.09c10.39-.09,18.11-7.25,18-16.68-.14-9.79-7.53-16.53-18.07-16.46s-17.84,6.75-17.81,16.57S189.61,219.18,200,219.09Z" transform="translate(-58.38 -58.3)"/><path class="cls-1" d="M299.16,327.94V310c0-11,0-21.95-.05-32.92a46.37,46.37,0,0,0-.85-8.4c-1.68-8.74-6.82-13.37-14.73-13.51-8.29-.16-15.8,5.59-17.37,13.61a52,52,0,0,0-.68,9.43c-.06,16.43,0,32.87,0,49.71H233.8V232.44h31.46V244.9c1.52-1.46,2.33-2.1,3-2.88,16.49-19.79,49.05-15,58.78,8.88a44.5,44.5,0,0,1,3.68,15.4c.41,20.42.17,40.84.17,61.64Z" transform="translate(-58.38 -58.3)"/><path class="cls-1" d="M215.62,328.08H184.38V232.59h31.24Z" transform="translate(-58.38 -58.3)"/><path class="cls-1" d="M200,219.09c-10.43.09-17.86-6.79-17.9-16.57S189.29,186,200,186s17.93,6.67,18.07,16.46C218.15,211.84,210.43,219,200,219.09Z" transform="translate(-58.38 -58.3)"/></svg>