<?xml version="1.0" encoding="utf-8"?>
<!-- Generator: Adobe Illustrator 26.0.2, SVG Export Plug-In . SVG Version: 6.00 Build 0)  -->
<svg version="1.1" id="Layer_1" xmlns="http://www.w3.org/2000/svg" xmlns:xlink="http://www.w3.org/1999/xlink" x="0px" y="0px"
	 viewBox="0 0 841.9 595.3" style="enable-background:new 0 0 841.9 595.3;" xml:space="preserve">
<style type="text/css">
	.st0{fill:#5E70A2;stroke:#F5F5F5;stroke-width:2;stroke-miterlimit:10;}
	.st1{fill:#5E70A2;stroke:#F5F5F5;stroke-miterlimit:10;}
</style>
<g>
	<path class="st0" d="M866.5-96.7c13.4,13.5,28,24.6,44.9,32.4c12.4,5.7,25.3,9.1,39.1,8.8c18.9-0.4,35.7-7.2,51.4-17
		c10.9-6.8,20.9-14.6,29.8-24c-0.4-0.5-0.7-0.9-1-1.2c-12.6-12.5-26.7-23-42.7-30.5c-15.5-7.3-31.7-11.2-48.9-8.8
		C910-133,887.2-117,866.5-96.7z M856.5-271.5c-0.8,0.6-1.2,1-1.6,1.3c-12.3,12.2-22.5,25.8-30,41.4c-10.9,22.5-13,45.7-4,69.4
		c5.5,14.5,13.6,27.4,23.4,39.3c3.8,4.5,7.9,8.8,12,13.3c15.3-15.2,27.5-31.7,35.1-51.3c6.3-16.4,8.1-33.2,3.7-50.4
		C888.6-233.4,874.4-253.3,856.5-271.5z M979.9-220.1c-16.6-1.3-43.1,3.6-59.7,10.7c-3.3,1.4-4.1,3-3.5,6.3c2,10.4,1.6,21-0.5,31.3
		c-1.4,6.9-3.4,13.6-5.3,20.7c18.3-6.8,36.9-9.3,56.2-5.4C976.3-176.9,980.3-198,979.9-220.1z M802.1-150.8
		c-6.9-18.4-9.3-36.4-6.2-55c0.1-0.8-1.3-2.4-2.3-2.9c-16.1-7.2-33.2-10.5-50.7-11.5c-3.4-0.2-6.7,0-10.3,0
		c-0.2,22.4,3.6,43.5,12.8,63.8C764.7-160.3,783.2-157.9,802.1-150.8z M826.6-54.2c8.5,12.1,17.9,23.6,29.7,33
		c11.8-9.6,21.3-21,29.6-33c-10-7.7-19.9-15.3-29.6-22.7C846.6-69.6,836.8-62,826.6-54.2z M856.3-336.8c-4.5,4.5-9.2,9.3-13.7,13.7
		c4.5,4.5,9.2,9.2,13.7,13.7c4.5-4.5,9.2-9.3,13.7-13.7C865.5-327.5,860.8-332.3,856.3-336.8z M794.5-295.6
		c-4.5,4.5-9.2,9.3-13.7,13.7c4.5,4.5,9.1,9.2,13.7,13.8c4.6-4.6,9.3-9.3,13.7-13.8C803.7-286.4,799-291.1,794.5-295.6z
		 M917.7-268.1c4.8-4.8,9.6-9.4,13.8-13.6c-4.5-4.6-9.2-9.3-13.5-13.6c-4.5,4.4-9.2,9.1-13.8,13.7
		C908.6-277.2,913.3-272.5,917.7-268.1z"/>
	<path class="st0" d="M680.6-96.8c10.7-10.5,22.4-19.9,35.5-27.2c14.1-7.9,29.1-13.3,45.5-13.7c14.3-0.4,27.8,3.2,40.7,9.3
		c16.1,7.6,30.1,18.1,42.6,30.8c0.3,0.3,0.5,0.7,1,1.3c-20.8,20.1-43.6,36.3-73.1,40.2c-14.9,2-29.1-0.9-42.9-6.5
		c-17-7-31.8-17.4-45.2-30c-1.3-1.2-2.7-2.3-4.1-3.5C680.6-96.3,680.6-96.6,680.6-96.8z"/>
	<path class="st0" d="M866.5-96.7c20.8-20.3,43.5-36.3,72.7-40.4c17.2-2.4,33.4,1.5,48.9,8.8c16.1,7.6,30.2,18,42.7,30.5
		c0.3,0.3,0.6,0.7,1,1.2c-8.9,9.4-18.9,17.2-29.8,24c-15.7,9.8-32.5,16.5-51.4,17c-13.8,0.3-26.7-3.1-39.1-8.8
		C894.5-72.1,879.9-83.2,866.5-96.7z"/>
	<path class="st0" d="M856.5-271.5c17.9,18.2,32.2,38.2,38.5,63c4.4,17.2,2.6,34-3.7,50.4c-7.6,19.6-19.8,36.1-35.1,51.3
		c-4.1-4.5-8.2-8.7-12-13.3c-9.8-11.9-17.9-24.8-23.4-39.3c-9-23.8-6.8-46.9,4-69.4c7.5-15.6,17.7-29.3,30-41.4
		C855.3-270.6,855.7-270.9,856.5-271.5z"/>
	<path class="st0" d="M979.9-220.1c0.3,22.2-3.6,43.2-12.7,63.6c-19.3-3.8-38-1.4-56.2,5.4c1.8-7.1,3.9-13.9,5.3-20.7
		c2.1-10.4,2.5-20.9,0.5-31.3c-0.6-3.3,0.2-4.9,3.5-6.3C936.8-216.5,963.3-221.5,979.9-220.1z"/>
	<path class="st0" d="M802.1-150.8c-18.9-7.1-37.4-9.5-56.7-5.7c-9.2-20.2-13-41.4-12.8-63.8c3.5,0,6.9-0.2,10.3,0
		c17.6,1,34.6,4.3,50.7,11.5c1,0.5,2.5,2,2.3,2.9C792.8-187.2,795.2-169.2,802.1-150.8z"/>
	<path class="st0" d="M826.6-54.2c10.2-7.8,20-15.4,29.7-22.8c9.7,7.4,19.6,15,29.6,22.7c-8.3,12.1-17.8,23.4-29.6,33
		C844.6-30.7,835.1-42.1,826.6-54.2z"/>
	<path class="st0" d="M856.3-336.8c4.5,4.5,9.2,9.3,13.7,13.7c-4.5,4.5-9.2,9.2-13.7,13.7c-4.5-4.5-9.2-9.3-13.7-13.7
		C847-327.5,851.8-332.3,856.3-336.8z"/>
	<path class="st0" d="M794.5-295.6c4.5,4.5,9.2,9.3,13.7,13.7c-4.5,4.5-9.2,9.2-13.7,13.8c-4.5-4.5-9.2-9.3-13.7-13.8
		C785.3-286.4,790-291.1,794.5-295.6z"/>
	<path class="st0" d="M917.7-268.1c-4.4-4.4-9.1-9.1-13.5-13.5c4.6-4.5,9.3-9.2,13.8-13.7c4.3,4.3,9,9,13.5,13.6
		C927.3-277.5,922.5-272.9,917.7-268.1z"/>
</g>
<g>
	<path class="st0" d="M429.8-76.7c-2.8,8.2-7.3,14.9-16.3,17.1c-2.8,0.7-5.8,0.9-8.8,0.9c-11.8,0.1-23.7,0.1-35.5,0
		c-2.9,0-4.3,0.7-5.2,3.8c-5.3,17.1-20.6,28.3-38.2,28.2c-17.6-0.1-32.5-11.1-37.8-28.1c-0.9-2.9-2.1-3.9-5.1-3.9
		c-61.7,0.1-123.5,0.1-185.2,0c-3,0-4.3,0.9-5.2,3.9c-5.3,17.1-20.7,28.3-38.2,28.1C36.7-27,21.8-38,16.6-54.9
		c-0.9-3-2.2-3.9-5.2-3.8c-10.8,0.2-21.5,0.1-32.3,0c-17.9-0.1-28.3-10.7-28.3-28.6c0-37.7,0-75.5,0-113.2c0-29,20.2-49.6,49.3-49.6
		c116.5-0.1,232.9-0.1,349.4,0c25.2,0,43,11.8,53.3,34.7c8.2,18.3,16.4,36.6,24.5,55c1.2,2.8,1.7,5.9,2.5,8.9
		C429.8-126.6,429.8-101.7,429.8-76.7z M413.9-147.1c-12.6-1.1-24.7-2.1-36.8-3.1c-19.3-1.5-38.5-4-57.8-4.1
		c-99.9-0.4-199.9-0.2-299.8-0.2c-1.9,0-3.8,0.1-5.6-0.2c-4.1-0.7-6.9-3.2-6.9-7.5c-0.1-16.2-0.1-32.4,0-48.6c0-4.3,2.8-6.8,7.1-7.3
		c2-0.2,4-0.2,6.1-0.2c87,0,174,0,261,0c24.1,0,48.3,0.8,72.3-3.5c7.5-1.3,15.1-2,23.5-3.1c-8.9-7.6-18.4-9.4-28.7-9.4
		c-90.4,0.1-180.9,0-271.3,0c-25.6,0-51.1-0.1-76.7,0c-20.3,0.1-33.4,13.2-33.4,33.4c-0.1,37.9,0,75.8,0,113.7
		c0,8.7,3.6,12.4,12.1,12.4c10.9,0.1,21.8-0.1,32.7,0.1c3.1,0.1,4.2-1.1,5.1-4c5.1-16.7,20.6-28,37.9-28c17.3,0,32.8,11.3,37.8,28
		c1,3.2,2.5,3.9,5.6,3.9c61.6-0.1,123.2-0.1,184.8,0c3.3,0,4.5-1.1,5.4-4.1c3.3-10.8,10.2-18.8,20.4-23.7
		c22.3-10.7,47.8,0.5,55.5,24c0.5,1.5,2.4,3.5,3.6,3.6c13.1,0.3,26.2,0.2,39.3,0.1c4.4,0,6.7-2.6,6.7-6.7
		C413.9-103.1,413.9-124.8,413.9-147.1z M334.1-169.7c25.2,2.1,49.6,4.1,74.8,6.2c-7-15.5-13.6-30-20.3-44.5
		c-0.4-0.9-2.5-1.6-3.8-1.5c-15.9,1.8-31.8,3.8-47.7,5.9c-1.1,0.1-2.8,1.7-2.9,2.7C334-190.7,334.1-180.5,334.1-169.7z M246.5-170.6
		c24.1,0,47.5,0,71.3,0c0-10.6,0-20.9,0-31.3c-23.9,0-47.5,0-71.3,0C246.5-191.3,246.5-181.1,246.5-170.6z M158.2-202
		c-21.3,0-42.2,0-63.3,0c0,10.6,0,20.9,0,31.4c21.2,0,42.1,0,63.3,0C158.2-181.1,158.2-191.3,158.2-202z M230.1-201.9
		c-18.8,0-37.1,0-55.3,0c0,10.7,0,21,0,31.3c18.6,0,36.9,0,55.3,0C230.1-181.2,230.1-191.4,230.1-201.9z M22.9-170.5
		c18.6,0,36.8,0,55.3,0c0-10.5,0-20.9,0-31.4c-18.5,0-36.8,0-55.3,0C22.9-191.4,22.9-181.2,22.9-170.5z M54.7-42.8
		c13.2-0.1,23.7-10.7,23.7-23.9c0-13.1-10.8-23.9-23.8-23.9c-13.1-0.1-24.2,11.2-24,24.2C30.9-53.1,41.6-42.7,54.7-42.8z
		 M326.1-42.8c13.1,0,23.8-10.6,23.9-23.7c0.1-13-10.7-23.9-23.7-24c-13.1-0.2-24.1,10.9-24,24.1C302.3-53.2,312.9-42.8,326.1-42.8z
		"/>
	<path class="st0" d="M413.9-147.1c0,22.3,0.1,44,0,65.6c0,4.2-2.3,6.7-6.7,6.7c-13.1,0.1-26.2,0.1-39.3-0.1c-1.3,0-3.2-2.1-3.6-3.6
		c-7.7-23.5-33.2-34.7-55.5-24c-10.2,4.9-17.1,12.8-20.4,23.7c-0.9,3-2.1,4.2-5.4,4.1c-61.6-0.1-123.2-0.1-184.8,0
		c-3.1,0-4.6-0.7-5.6-3.9c-5.1-16.8-20.5-28-37.8-28c-17.3,0-32.8,11.3-37.9,28c-0.9,2.9-2,4-5.1,4c-10.9-0.2-21.8,0-32.7-0.1
		c-8.5,0-12.1-3.8-12.1-12.4c0-37.9-0.1-75.8,0-113.7c0-20.2,13.1-33.3,33.4-33.4c25.6-0.1,51.1,0,76.7,0c90.4,0,180.9,0,271.3,0
		c10.3,0,19.8,1.8,28.7,9.4c-8.4,1.1-16,1.8-23.5,3.1c-24,4.3-48.1,3.5-72.3,3.5c-87,0-174,0-261,0c-2,0-4.1,0-6.1,0.2
		c-4.3,0.5-7.1,3-7.1,7.3c-0.2,16.2-0.2,32.4,0,48.6c0,4.4,2.8,6.8,6.9,7.5c1.8,0.3,3.7,0.2,5.6,0.2c99.9,0,199.9-0.2,299.8,0.2
		c19.3,0.1,38.5,2.6,57.8,4.1C389.2-149.2,401.3-148.1,413.9-147.1z"/>
	<path class="st0" d="M334.1-169.7c0-10.7-0.1-21,0.1-31.2c0-0.9,1.8-2.5,2.9-2.7c15.9-2.1,31.8-4.1,47.7-5.9
		c1.2-0.1,3.3,0.6,3.8,1.5c6.8,14.5,13.3,29.1,20.3,44.5C383.6-165.6,359.3-167.6,334.1-169.7z"/>
	<path class="st0" d="M246.5-170.6c0-10.5,0-20.8,0-31.3c23.7,0,47.3,0,71.3,0c0,10.4,0,20.7,0,31.3
		C294-170.6,270.5-170.6,246.5-170.6z"/>
	<path class="st0" d="M158.2-202c0,10.7,0,20.9,0,31.4c-21.2,0-42.1,0-63.3,0c0-10.5,0-20.8,0-31.4C116-202,136.9-202,158.2-202z"/>
	<path class="st0" d="M230.1-201.9c0,10.5,0,20.7,0,31.3c-18.5,0-36.7,0-55.3,0c0-10.3,0-20.6,0-31.3
		C193-201.9,211.2-201.9,230.1-201.9z"/>
	<path class="st0" d="M22.9-170.5c0-10.7,0-20.9,0-31.4c18.5,0,36.8,0,55.3,0c0,10.5,0,20.9,0,31.4
		C59.8-170.5,41.6-170.5,22.9-170.5z"/>
	<path class="st0" d="M54.7-42.8c-13.2,0.1-23.8-10.3-24.1-23.5c-0.3-13,10.9-24.3,24-24.2c13,0.1,23.7,10.8,23.8,23.9
		C78.5-53.5,67.9-42.9,54.7-42.8z"/>
	<path class="st0" d="M326.1-42.8c-13.2,0-23.8-10.4-23.9-23.7c-0.1-13.2,10.9-24.3,24-24.1c13,0.2,23.8,11.1,23.7,24
		C349.9-53.4,339.2-42.8,326.1-42.8z"/>
</g>
<g>
	<path class="st1" d="M342.7,203.8c-0.5,0.5-0.7,0.6-0.7,0.7c-0.4,0.8-0.8,1.6-1.1,2.4c-12,28.9-16.7,58.8-12.9,90
		c5.9,48.5,28,88.3,65.5,119.4c1.7,1.4,3.1,1.5,5,0.7c12.1-4.6,24.2-9.1,36.3-13.7c1.7-0.6,3.4-1.4,5.3-2.1
		c-0.8-0.9-1.3-1.6-1.9-2.2c-36.6-39.9-55-87-54.3-141.1c0.1-9.8-2.5-16.1-9.4-22.4C363.6,225.4,353.3,214.4,342.7,203.8z
		 M371.3,427.1c-48.8-46.3-70.9-102.7-66.7-169.4c-0.6,0.9-1,1.8-1.3,2.7c-10.4,27.8-20.7,55.8-31.5,83.5
		c-2.5,6.5-2.5,12.2-0.4,18.6c10.1,31.2,27.1,57.8,51.6,79.6c1.1,1,3.2,1.8,4.4,1.4C341.9,438.2,356.3,432.7,371.3,427.1z
		 M506.4,197.8c-11.1-1.7-21.8-2.9-30.3,5.8c-8.4,8.6-6.9,19.3-5.6,29.8c-3.7-0.4-6.9-1-10.2-1.1c-7.5-0.3-14.4,1.3-19.9,6.9
		c-3.9,4-4.3,10.3-0.9,14.7c3.3,4.4,9.7,5.9,14.4,2.7c3.1-2.1,6.1-2.1,9.5-1.6c6.1,0.9,12.3,2,18.5,1.7c7-0.3,11.7-5.9,12.2-12.9
		c0.2-3,0-6-0.4-8.9c-0.5-3.9-1.5-7.8-1.9-11.8c-0.4-3.9,0.5-4.7,4.4-4.2c4.4,0.6,8.8,1.6,13.2,2.3c14.1,2.2,22.5-6.1,20.3-20.2
		c-0.6-4.1-1.5-8.1-2.1-12.1c-0.9-5.4-0.1-6.2,5.4-5.5c5.3,0.7,10.6,2.1,15.9,2.3c11.5,0.5,18.1-7,16.7-18.5
		c-0.5-4.4-1.5-8.8-2.3-13.3c-1.1-6,0-7.1,6.1-6.2c5,0.8,10.1,2,15.1,2.3c10.9,0.5,17.2-5.8,16.7-16.7c-0.2-4.6-1.2-9.1-2-13.7
		c-0.6-3.5-0.8-6.6,1.4-9.9c3.2-4.6,1.7-11-2.7-14.4c-4.5-3.4-11-3.4-14.6,0.9c-2.8,3.3-5.4,7.5-6.1,11.6c-1,5.9-0.3,12-0.3,18.4
		c-10.3-1.7-20.9-2.8-29.4,5.5c-8.7,8.5-7.6,19.1-5.8,30.2c-10.7-1.3-21.3-2.8-29.9,5.5C503.5,175.9,504.8,186.5,506.4,197.8z
		 M406.2,267.6c0.8,17.4,3.6,33.4,8.8,49c9.5,28.6,25.1,53.3,47,74c0.8,0.8,2.7,1.3,3.8,1c10.3-3.7,20.6-7.5,30.8-11.5
		c4.6-1.8,7.1-5.4,7.3-10.4c0.2-4-2.1-7-4.9-9.7c-29.8-29.8-59.6-59.6-89.5-89.4C408.6,269.8,407.7,269,406.2,267.6z M573.2,248.7
		c-6.5,0.5-11.1,0.7-15.6,1.3c-27.8,3.9-50.5,17.6-69.9,37.2c-3.5,3.5-3.7,9-1.1,13.2c2.5,4.2,7.5,6.4,12.3,4.9
		c2.4-0.8,4.5-2.5,6.5-4.1c7.1-5.4,13.7-11.7,21.2-16.4c18.7-11.6,38.9-16.3,60.8-11.5c7.2,1.6,13.1-1.3,14.7-7.6
		c1.7-6.6-1.9-12.5-9.3-14C585.8,250.3,578.6,249.5,573.2,248.7z M455.1,132.4c-1.3-8-2.2-16-4.1-23.8c-1.4-6-7.8-8.9-13.7-7.3
		c-5.5,1.5-9.1,7.4-7.7,13.2c5.2,21,1.4,40.7-9.2,59c-5.3,9-12.4,17.1-19,25.3c-4.5,5.5-5,12.3-0.3,16.7c4.8,4.6,11.4,4.1,16.6-1.1
		c1-1.1,2.1-2.1,3.1-3.2C441.2,188.8,453.8,163.2,455.1,132.4z M570.7,326.6c0.1-6.3-4.7-11.2-10.9-11.4c-6.3-0.1-11.5,5-11.5,11.2
		c0,6.1,5.1,11.2,11.2,11.2C565.7,337.6,570.6,332.8,570.7,326.6z M384.8,140.6c-6.3,0-11.1,5-11.1,11.2c0.1,6.2,5.1,11.2,11.3,11.1
		c6.1-0.1,11.2-5.2,11.1-11.3C396.1,145.4,391.1,140.6,384.8,140.6z M507.2,136c0.1-6.3-4.8-11.2-11-11.3
		c-6.1-0.1-11.2,4.9-11.3,11.1c-0.1,6.2,4.8,11.2,11.1,11.3C502.3,147,507.1,142.3,507.2,136z M575.3,204.1
		c-6.2,0.1-11.1,5.2-11.1,11.3c0.1,6.2,5.1,11.1,11.3,11c6.2-0.1,11.1-5.1,11-11.3C586.6,208.9,581.5,204,575.3,204.1z"/>
	<path class="st1" d="M236,476.1c-8.6-4.3-10.4-8.8-7-17.8c8.5-22.7,17-45.5,25.6-68.2c0.4-1.1,0.9-2.2,1.7-4.1
		c10.9,25.6,25.9,47.6,45.5,66.9c-1.5,0.6-2.6,1.2-3.7,1.6c-18.3,6.9-36.6,13.7-54.9,20.6c-0.7,0.3-1.3,0.6-1.9,1
		C239.5,476.1,237.8,476.1,236,476.1z"/>
	<path class="st1" d="M342.7,203.8c10.6,10.6,20.8,21.6,31.9,31.7c6.9,6.3,9.5,12.6,9.4,22.4c-0.7,54.1,17.7,101.2,54.3,141.1
		c0.6,0.6,1.1,1.3,1.9,2.2c-1.9,0.8-3.6,1.5-5.3,2.1c-12.1,4.6-24.2,9.1-36.3,13.7c-1.9,0.7-3.3,0.7-5-0.7
		c-37.6-31.2-59.7-70.9-65.5-119.4c-3.8-31.1,1-61.1,12.9-90c0.3-0.8,0.7-1.6,1.1-2.4C342,204.4,342.2,204.3,342.7,203.8z"/>
	<path class="st1" d="M371.3,427.1c-15,5.6-29.4,11.1-43.9,16.3c-1.2,0.4-3.3-0.5-4.4-1.4c-24.5-21.8-41.6-48.4-51.6-79.6
		c-2.1-6.4-2.1-12.1,0.4-18.6c10.8-27.7,21-55.6,31.5-83.5c0.3-0.9,0.7-1.8,1.3-2.7C300.3,324.4,322.5,380.8,371.3,427.1z"/>
	<path class="st1" d="M506.4,197.8c-1.6-11.2-2.8-21.9,5.9-30.4c8.5-8.3,19.1-6.8,29.9-5.5c-1.8-11.1-2.8-21.7,5.8-30.2
		c8.5-8.3,19-7.2,29.4-5.5c0-6.4-0.8-12.5,0.3-18.4c0.7-4.1,3.3-8.3,6.1-11.6c3.6-4.4,10.1-4.4,14.6-0.9c4.4,3.4,5.9,9.7,2.7,14.4
		c-2.2,3.3-2.1,6.4-1.4,9.9c0.8,4.5,1.8,9.1,2,13.7c0.5,10.9-5.9,17.2-16.7,16.7c-5.1-0.3-10.1-1.5-15.1-2.3
		c-6.1-0.9-7.2,0.2-6.1,6.2c0.8,4.4,1.7,8.8,2.3,13.3c1.4,11.5-5.2,19-16.7,18.5c-5.3-0.2-10.6-1.6-15.9-2.3
		c-5.6-0.7-6.3,0.1-5.4,5.5c0.6,4.1,1.5,8.1,2.1,12.1c2.2,14.1-6.2,22.4-20.3,20.2c-4.4-0.7-8.8-1.7-13.2-2.3
		c-3.9-0.6-4.9,0.3-4.4,4.2c0.4,4,1.4,7.8,1.9,11.8c0.4,3,0.6,6,0.4,8.9c-0.5,7-5.2,12.6-12.2,12.9c-6.1,0.3-12.3-0.8-18.5-1.7
		c-3.5-0.5-6.4-0.5-9.5,1.6c-4.7,3.1-11.1,1.7-14.4-2.7c-3.4-4.5-3.1-10.7,0.9-14.7c5.5-5.6,12.4-7.2,19.9-6.9
		c3.2,0.1,6.4,0.7,10.2,1.1c-1.3-10.5-2.9-21.2,5.6-29.8C484.6,194.9,495.2,196.1,506.4,197.8z"/>
	<path class="st1" d="M406.2,267.6c1.5,1.4,2.4,2.2,3.3,3c29.8,29.8,59.6,59.6,89.5,89.4c2.7,2.7,5,5.7,4.9,9.7
		c-0.2,4.9-2.6,8.6-7.3,10.4c-10.2,3.9-20.5,7.8-30.8,11.5c-1,0.4-2.9-0.2-3.8-1c-21.8-20.7-37.5-45.4-47-74
		C409.8,300.9,407,284.9,406.2,267.6z"/>
	<path class="st1" d="M573.2,248.7c5.4,0.8,12.6,1.5,19.6,3c7.4,1.5,11,7.5,9.3,14c-1.6,6.3-7.6,9.2-14.7,7.6
		c-21.9-4.8-42.1-0.1-60.8,11.5c-7.6,4.7-14.1,10.9-21.2,16.4c-2,1.6-4.2,3.3-6.5,4.1c-4.8,1.5-9.7-0.7-12.3-4.9
		c-2.5-4.2-2.4-9.7,1.1-13.2c19.4-19.7,42.1-33.3,69.9-37.2C562.1,249.4,566.8,249.3,573.2,248.7z"/>
	<path class="st1" d="M455.1,132.4c-1.4,30.8-13.9,56.4-34.4,78.6c-1,1.1-2.1,2.2-3.1,3.2c-5.2,5.3-11.8,5.7-16.6,1.1
		c-4.7-4.5-4.2-11.2,0.3-16.7c6.7-8.2,13.7-16.2,19-25.3c10.7-18.3,14.4-38,9.2-59c-1.4-5.7,2.2-11.6,7.7-13.2
		c5.9-1.6,12.2,1.3,13.7,7.3C452.9,116.4,453.8,124.4,455.1,132.4z"/>
	<path class="st1" d="M570.7,326.6c-0.1,6.2-5,11.1-11.2,11c-6.1,0-11.1-5.1-11.2-11.2c0-6.2,5.2-11.3,11.5-11.2
		C566,315.3,570.8,320.3,570.7,326.6z"/>
	<path class="st1" d="M384.8,140.6c6.3,0,11.3,4.8,11.3,11c0.1,6.1-5,11.2-11.1,11.3c-6.1,0.1-11.2-4.9-11.3-11.1
		C373.7,145.6,378.6,140.7,384.8,140.6z"/>
	<path class="st1" d="M507.2,136c-0.1,6.3-4.9,11.1-11.3,11c-6.2-0.1-11.1-5.1-11.1-11.3c0.1-6.2,5.2-11.1,11.3-11.1
		C502.4,124.7,507.3,129.7,507.2,136z"/>
	<path class="st1" d="M575.3,204.1c6.2-0.1,11.2,4.9,11.3,11.1c0.1,6.2-4.8,11.2-11,11.3c-6.2,0.1-11.2-4.9-11.3-11
		C564.2,209.2,569.2,204.1,575.3,204.1z"/>
</g>
</svg>
