<svg id="Layer_2" data-name="Layer 2" xmlns="http://www.w3.org/2000/svg" xmlns:xlink="http://www.w3.org/1999/xlink" viewBox="0 0 3200 1333.33"><defs><style>.cls-1{fill:none;}.cls-2,.cls-4{fill:#f2cc8e;}.cls-2,.cls-5{stroke:#1d1d1b;stroke-miterlimit:10;stroke-width:0.75px;}.cls-3{fill:#fffbd8;}.cls-10,.cls-5{fill:#6976a6;}.cls-6{fill:#f9ba73;}.cls-7{clip-path:url(#clip-path);}.cls-8{fill:#ee7402;}.cls-9{fill:#f08000;}.cls-11{fill:#fff;}.cls-12{fill:#86c8ab;}.cls-13{fill:#f18700;}.cls-14{fill:#ffca00;}.cls-15{fill:#fffbdb;}.cls-16{fill:#ffe226;}</style><clipPath id="clip-path"><path class="cls-1" d="M1170.25,870.51a6,6,0,1,0,6,6,6.09,6.09,0,0,0-6-6"/></clipPath></defs><path class="cls-2" d="M456.55,697.51V964.22c0,93,76.13,169.17,169.18,169.17h2035.1c93.05,0,169.17-76.13,169.17-169.17V697.51H456.55"/><rect class="cls-3" x="2708.68" y="819.91" width="172.49" height="10.91"/><rect class="cls-3" x="2708.68" y="845.81" width="172.49" height="10.91"/><rect class="cls-3" x="2708.68" y="871.71" width="172.49" height="10.91"/><rect class="cls-3" x="2708.68" y="897.61" width="172.49" height="10.91"/><rect class="cls-3" x="2708.68" y="923.5" width="172.49" height="10.91"/><rect class="cls-3" x="2708.68" y="949.4" width="172.49" height="10.91"/><rect class="cls-3" x="2708.68" y="975.3" width="172.49" height="10.91"/><rect class="cls-3" x="2708.68" y="1001.2" width="172.49" height="10.91"/><rect class="cls-3" x="2708.68" y="1027.09" width="172.49" height="10.91"/><path class="cls-4" d="M441.79,266.48a33.56,33.56,0,0,0-46,31.18V358.5a33.54,33.54,0,0,0,46,31.17Z"/><path class="cls-4" d="M837.78,858C723,858,630,951,630,1065.72h415.48c0-114.75-93-207.74-207.74-207.74"/><path class="cls-4" d="M1074.55,1065.72h-7.46c0-126.44-102.87-229.31-229.31-229.31s-229.3,102.87-229.3,229.31H601C601,935.16,707.23,829,837.78,829s236.77,106.21,236.77,236.77"/><path class="cls-4" d="M1102.33,1065.72h-7.47c0-141.76-115.32-257.08-257.08-257.08S580.7,924,580.7,1065.72h-7.46c0-145.87,118.67-264.55,264.54-264.55s264.55,118.68,264.55,264.55"/><rect class="cls-4" x="431.84" y="720.97" width="594.88" height="28.79"/><path class="cls-5" d="M2890.29,667.66v-104c0-93-76.13-169.17-169.18-169.17H686c-93,0-169.17,76.13-169.17,169.17v104Z"/><path class="cls-6" d="M1304,533.71a119.82,119.82,0,1,1-119.82-119.82A119.83,119.83,0,0,1,1304,533.71Z"/><path class="cls-4" d="M1068.46,280.85c-2.11-16.75-15.61-27.08-31.83-28.16-10.38-.69-22.79,2.06-29.16-8.19-4.85-7.8-2.85-18.42-7.11-26.67-7.74-15-31.29-15.22-45.06-12.19-39.73,8.75-66.71,44.28-104.39,57.58-36.16,12.76-105.4,4.08-112.86,57-.58,4.1,5.32,5.36,6.85,1.69,7.54-18.07,18.14-28.77,36.56-35.3,17.49-6.19,37.3-6.39,55.52-9.39,34-5.62,58.16-27.86,86.44-45.44,14.79-9.19,31.91-18.06,49.8-16.89,10,.65,18.14,6.32,19.82,16.38,1.3,7.73,2.27,14.68,6.43,21.47,8.36,13.66,25.94,9.93,39.28,11.58,24.15,3,22.79,35.39,6.74,47.17-4.87,3.58.12,11.77,5.53,9C1065.63,313.08,1070.4,296.28,1068.46,280.85Z"/><g class="cls-7"><rect class="cls-8" x="1164.07" y="870.51" width="12.21" height="12.08"/></g><path class="cls-8" d="M1196.25,870.51a6,6,0,0,0,0,12.07h0a6,6,0,0,0,0-12.07"/><path class="cls-8" d="M1222.23,870.51a6,6,0,0,0,0,12.07h0a6,6,0,1,0,0-12.07h0"/><path class="cls-8" d="M1248.47,870.51a6,6,0,1,0,0,12.08,6,6,0,0,0,0-12.08"/><path class="cls-8" d="M1274.48,870.51a6,6,0,0,0,0,12.07h0a6,6,0,0,0,0-12.07"/><path class="cls-8" d="M1300.53,870.51a6,6,0,1,0,0,12.07h0a6,6,0,1,0,0-12.07"/><path class="cls-8" d="M1326.65,870.51a6,6,0,1,0,0,12.07h0a6,6,0,0,0,0-12.07"/><path class="cls-8" d="M1352.68,870.51a6,6,0,1,0,6.11,6,6.06,6.06,0,0,0-6.11-6"/><path class="cls-8" d="M1378.84,870.52a6,6,0,1,0,6.05,6,6.09,6.09,0,0,0-6.05-6h0"/><path class="cls-8" d="M1404.85,870.51a6,6,0,1,0,6.06,6,6,6,0,0,0-6.06-6"/><path class="cls-8" d="M1430.91,870.51a6,6,0,1,0,6.14,6,6.06,6.06,0,0,0-6.14-6"/><path class="cls-8" d="M1457,870.51a6,6,0,1,0,6,6,6.09,6.09,0,0,0-6-6"/><path class="cls-9" d="M857.33,870.51a6,6,0,1,0,6,6,6.09,6.09,0,0,0-6-6"/><path class="cls-9" d="M883.34,870.51a6,6,0,0,0,0,12.07h0a6,6,0,0,0,0-12.07"/><path class="cls-8" d="M909.31,870.51H909q2.36.86,4.68,1.77a6.29,6.29,0,0,0-4.4-1.78h0"/><path class="cls-9" d="M909,870.52a6,6,0,0,0,.27,12.06h0a6.09,6.09,0,0,0,6.19-6,5.94,5.94,0,0,0-1.8-4.26q-2.33-.91-4.68-1.77"/><path class="cls-8" d="M935.54,870.51a6.11,6.11,0,0,0-6.14,6,6,6,0,0,0,.87,3.1c1.91,1,3.8,1.92,5.66,2.93a6,6,0,0,0-.39-12.07"/><path class="cls-9" d="M930.27,879.65a6.19,6.19,0,0,0,5.27,2.94h.39c-1.86-1-3.75-2-5.66-2.93"/><path class="cls-8" d="M959,871.11a6,6,0,0,0,2.58,11.47h0a6,6,0,0,0,6-5.8q-4.26-2.92-8.63-5.67"/><path class="cls-9" d="M961.56,870.51a6,6,0,0,0-2.6.6q4.38,2.75,8.63,5.67v-.24a6,6,0,0,0-6-6"/><path class="cls-8" d="M987.62,870.51a6.06,6.06,0,0,0-6.09,6,6.26,6.26,0,0,0,.12,1.23c2,1.56,4.06,3.16,6,4.79a6,6,0,1,0-.07-12.07"/><path class="cls-9" d="M981.65,877.79a6.06,6.06,0,0,0,6,4.79h.08c-2-1.63-4-3.23-6-4.79"/><path class="cls-8" d="M1008.45,873.61a6,6,0,0,0,5.27,9h0a5.94,5.94,0,0,0,3.28-1q-4.2-4.08-8.58-8"/><path class="cls-9" d="M1013.72,870.51a6.05,6.05,0,0,0-5.27,3.1q4.38,3.9,8.58,8a6,6,0,0,0-3.31-11.09"/><path class="cls-8" d="M1039.76,870.51a6,6,0,1,0,6.12,6,6.06,6.06,0,0,0-6.12-6"/><path class="cls-8" d="M1065.92,870.52a6,6,0,1,0,6,6,6.09,6.09,0,0,0-6-6h0"/><path class="cls-8" d="M1091.93,870.51a6,6,0,1,0,6.06,6,6,6,0,0,0-6.06-6"/><path class="cls-8" d="M1118,870.51a6,6,0,1,0,6.15,6,6.05,6.05,0,0,0-6.15-6"/><path class="cls-8" d="M1144.12,870.51a6,6,0,1,0,6,6,6.09,6.09,0,0,0-6-6"/><path class="cls-8" d="M1483.17,870.51a6,6,0,1,0,6,6,6.09,6.09,0,0,0-6-6"/><path class="cls-8" d="M1509.18,870.51a6,6,0,1,0,0,12.07h0a6,6,0,0,0,0-12.07"/><path class="cls-8" d="M1535.15,870.51a6,6,0,0,0,0,12.07h0a6,6,0,1,0,0-12.07h0"/><path class="cls-8" d="M1561.39,870.51a6,6,0,1,0,0,12.08,6,6,0,0,0,0-12.08"/><path class="cls-8" d="M1587.4,870.51a6,6,0,0,0,0,12.07h0a6,6,0,0,0,0-12.07"/><path class="cls-8" d="M1613.46,870.51a6,6,0,1,0,0,12.07h0a6,6,0,1,0,0-12.07"/><path class="cls-8" d="M1639.57,870.51a6,6,0,1,0,0,12.07h0a6,6,0,0,0,0-12.07"/><path class="cls-8" d="M1665.6,870.51a6,6,0,1,0,6.12,6,6.07,6.07,0,0,0-6.12-6"/><path class="cls-8" d="M1691.76,870.52a6,6,0,1,0,6.06,6,6.1,6.1,0,0,0-6.06-6h0"/><path class="cls-8" d="M1717.78,870.51a6,6,0,1,0,6,6,6,6,0,0,0-6-6"/><path class="cls-8" d="M1743.83,870.51a6,6,0,1,0,6.14,6,6.05,6.05,0,0,0-6.14-6"/><path class="cls-8" d="M1770,870.51a6,6,0,1,0,6,6,6.09,6.09,0,0,0-6-6"/><path class="cls-8" d="M1796.09,870.51a6,6,0,1,0,0,12.08,6,6,0,0,0,0-12.08"/><path class="cls-8" d="M1822.1,870.51a6,6,0,1,0,0,12.07h0a6,6,0,0,0,0-12.07"/><path class="cls-8" d="M1848.08,870.51a6,6,0,0,0,0,12.07h0a6,6,0,1,0,0-12.07h0"/><path class="cls-8" d="M1874.3,870.51a6,6,0,1,0,0,12.08,6,6,0,0,0,0-12.08"/><path class="cls-8" d="M1170.25,924.53a6,6,0,1,0,6,6,6.08,6.08,0,0,0-6-6"/><path class="cls-8" d="M1196.25,924.52a6,6,0,0,0,0,12.07h0a6,6,0,0,0,0-12.07"/><path class="cls-8" d="M1222.24,924.53a6,6,0,0,0,0,12.06h0a6,6,0,1,0,0-12.06h0"/><path class="cls-8" d="M1248.47,924.53a6,6,0,1,0,0,12.07,6,6,0,0,0,0-12.07"/><path class="cls-8" d="M1274.48,924.53a6,6,0,0,0,0,12.06h0a6,6,0,0,0,0-12.06"/><path class="cls-8" d="M1300.53,924.53a6,6,0,1,0,0,12.06h0a6,6,0,1,0,0-12.06"/><path class="cls-8" d="M1326.65,924.53a6,6,0,1,0,0,12.06h0a6,6,0,0,0,0-12.06"/><path class="cls-8" d="M1352.68,924.53a6,6,0,1,0,6.11,6,6,6,0,0,0-6.11-6"/><path class="cls-8" d="M1378.83,924.53a6,6,0,1,0,6.06,6,6.09,6.09,0,0,0-6.06-6h0"/><path class="cls-8" d="M1404.85,924.53a6,6,0,1,0,6.06,6,6,6,0,0,0-6.06-6"/><path class="cls-8" d="M1430.91,924.52a6,6,0,1,0,6.14,6.05,6.07,6.07,0,0,0-6.14-6.05"/><path class="cls-8" d="M1457,924.52a6,6,0,1,0,6,6,6.09,6.09,0,0,0-6-6"/><path class="cls-9" d="M857.33,924.53a6,6,0,1,0,6,6,6.08,6.08,0,0,0-6-6"/><path class="cls-9" d="M883.34,924.52a6,6,0,0,0,0,12.07h0a6,6,0,0,0,0-12.07"/><path class="cls-9" d="M909.32,924.53a6,6,0,0,0,0,12.06h0a6,6,0,1,0,0-12.06h0"/><path class="cls-9" d="M935.54,924.53a6,6,0,1,0,0,12.07,6,6,0,1,0,0-12.07"/><path class="cls-9" d="M961.56,924.53a6,6,0,0,0,0,12.06h0a6,6,0,0,0,0-12.06"/><path class="cls-8" d="M991.24,925.68,993,927.6a6,6,0,0,0-1.73-1.92"/><path class="cls-9" d="M987.62,924.53a6,6,0,1,0,0,12.06h0a6,6,0,0,0,6.11-6,6,6,0,0,0-.78-3l-1.73-1.92a6.15,6.15,0,0,0-3.62-1.15"/><path class="cls-8" d="M1013.72,924.53a6,6,0,1,0,0,12.06h0a6,6,0,0,0,0-12.06"/><path class="cls-8" d="M1039.76,924.53a6,6,0,1,0,6.12,6,6.12,6.12,0,0,0-6.12-6"/><path class="cls-8" d="M1065.91,924.53a6.17,6.17,0,0,0-3.71,1.23q3.18,5.1,6.14,10.33a6,6,0,0,0-2.41-11.56h0"/><path class="cls-9" d="M1062.2,925.76a6,6,0,0,0-2.43,4.8,6.14,6.14,0,0,0,8.57,5.53q-3-5.24-6.14-10.33"/><path class="cls-8" d="M1091.93,924.53a6,6,0,1,0,6.06,6,6,6,0,0,0-6.06-6"/><path class="cls-8" d="M1118,924.52a6,6,0,1,0,6.15,6.05,6.06,6.06,0,0,0-6.15-6.05"/><path class="cls-8" d="M1144.12,924.52a6,6,0,1,0,6,6,6.1,6.1,0,0,0-6-6"/><path class="cls-8" d="M1483.17,924.53a6,6,0,1,0,6,6,6.08,6.08,0,0,0-6-6"/><path class="cls-8" d="M1509.18,924.52a6,6,0,0,0,0,12.07h0a6,6,0,0,0,0-12.07"/><path class="cls-8" d="M1535.15,924.53a6,6,0,0,0,0,12.06h0a6,6,0,1,0,0-12.06h0"/><path class="cls-8" d="M1561.39,924.53a6,6,0,1,0,0,12.07,6,6,0,0,0,0-12.07"/><path class="cls-8" d="M1587.4,924.53a6,6,0,0,0,0,12.06h0a6,6,0,0,0,0-12.06"/><path class="cls-8" d="M1613.46,924.53a6,6,0,1,0,0,12.06h0a6,6,0,1,0,0-12.06"/><path class="cls-8" d="M1639.57,924.53a6,6,0,1,0,0,12.06h0a6,6,0,0,0,0-12.06"/><path class="cls-8" d="M1665.6,924.53a6,6,0,1,0,6.12,6,6.06,6.06,0,0,0-6.12-6"/><path class="cls-8" d="M1691.75,924.53a6,6,0,1,0,6.07,6,6.1,6.1,0,0,0-6.07-6h0"/><path class="cls-8" d="M1717.78,924.53a6,6,0,1,0,6,6,6,6,0,0,0-6-6"/><path class="cls-8" d="M1743.83,924.52a6,6,0,1,0,6.14,6.05,6.06,6.06,0,0,0-6.14-6.05"/><path class="cls-8" d="M1770,924.52a6,6,0,1,0,6,6,6.1,6.1,0,0,0-6-6"/><path class="cls-8" d="M1796.09,924.53a6,6,0,1,0,6,6,6.09,6.09,0,0,0-6-6"/><path class="cls-8" d="M1822.1,924.52a6,6,0,0,0,0,12.07h0a6,6,0,0,0,0-12.07"/><path class="cls-8" d="M1848.08,924.53a6,6,0,0,0,0,12.06h0a6,6,0,1,0,0-12.06h0"/><path class="cls-8" d="M1874.3,924.53a6,6,0,1,0,0,12.07,6,6,0,1,0,0-12.07"/><path class="cls-8" d="M1157.18,897.52a6,6,0,1,0,6,6,6.08,6.08,0,0,0-6-6"/><path class="cls-8" d="M1183.18,897.51a6,6,0,0,0,0,12.08h0a6,6,0,1,0,0-12.08"/><path class="cls-8" d="M1209.16,897.52a6,6,0,0,0,0,12.07h0a6,6,0,1,0,0-12.07h0"/><path class="cls-8" d="M1235.4,897.52h0a6,6,0,1,0,0,12.07,6,6,0,0,0,0-12.07"/><path class="cls-8" d="M1261.41,897.52a6,6,0,0,0,0,12.07h0a6,6,0,0,0,0-12.07"/><path class="cls-8" d="M1287.46,897.52a6,6,0,1,0,0,12.07h0a6,6,0,1,0,0-12.07"/><path class="cls-8" d="M1313.58,897.52h0a6,6,0,1,0,0,12.07h0a6,6,0,0,0,0-12.07"/><path class="cls-8" d="M1339.61,897.52a6,6,0,1,0,6.11,6,6,6,0,0,0-6.11-6"/><path class="cls-8" d="M1365.77,897.52a6,6,0,1,0,6,6,6.1,6.1,0,0,0-6-6h0"/><path class="cls-8" d="M1391.78,897.52a6,6,0,1,0,6.06,6,6,6,0,0,0-6.06-6"/><path class="cls-8" d="M1417.83,897.51a6,6,0,1,0,6.15,6,6.07,6.07,0,0,0-6.15-6"/><path class="cls-8" d="M1444,897.51a6,6,0,1,0,6,6,6.11,6.11,0,0,0-6-6"/><path class="cls-9" d="M844.26,897.52a6,6,0,1,0,6,6,6.08,6.08,0,0,0-6-6"/><path class="cls-9" d="M870.27,897.51a6,6,0,0,0,0,12.08h0a6,6,0,0,0,0-12.08"/><path class="cls-9" d="M896.24,897.52a6,6,0,0,0,0,12.07h0a6,6,0,1,0,0-12.07h0"/><path class="cls-9" d="M922.48,897.52h0a6,6,0,1,0,0,12.07,6,6,0,0,0,0-12.07"/><path class="cls-9" d="M948.49,897.52a6,6,0,0,0,0,12.07h0a6,6,0,0,0,0-12.07"/><path class="cls-8" d="M974.54,897.52a6,6,0,0,0-6.08,6c0,.23,0,.46,0,.68q3.22,2.61,6.34,5.34a6,6,0,0,0-.29-12.06"/><path class="cls-9" d="M968.49,904.24a6.05,6.05,0,0,0,6,5.35h.29q-3.12-2.73-6.34-5.34"/><path class="cls-8" d="M995.92,899.81a6,6,0,0,0,4.73,9.78h0a5.94,5.94,0,0,0,3.71-1.29q-4.12-4.35-8.46-8.49"/><path class="cls-9" d="M1000.66,897.52h0a6.05,6.05,0,0,0-4.73,2.29q4.33,4.14,8.46,8.49a6,6,0,0,0-3.72-10.78"/><path class="cls-8" d="M1026.69,897.52a6,6,0,1,0,6.11,6,6,6,0,0,0-6.11-6"/><path class="cls-8" d="M1052.85,897.52a6.1,6.1,0,0,0-6.15,6v0c1.46,1.88,2.91,3.8,4.33,5.72a6.14,6.14,0,0,0,1.83.27,6,6,0,1,0,0-12.07h0"/><path class="cls-9" d="M1046.7,903.6a6,6,0,0,0,4.33,5.72c-1.42-1.92-2.87-3.84-4.33-5.72"/><path class="cls-8" d="M1078.86,897.52a6,6,0,1,0,6.06,6,6,6,0,0,0-6.06-6"/><path class="cls-8" d="M1104.91,897.51a6,6,0,1,0,6.15,6,6.07,6.07,0,0,0-6.15-6"/><path class="cls-8" d="M1131.05,897.51a6,6,0,1,0,6,6,6.11,6.11,0,0,0-6-6"/><path class="cls-8" d="M1470.1,897.52a6,6,0,1,0,6,6,6.08,6.08,0,0,0-6-6"/><path class="cls-8" d="M1496.11,897.51a6,6,0,0,0,0,12.08h0a6,6,0,0,0,0-12.08"/><path class="cls-8" d="M1522.08,897.52a6,6,0,0,0,0,12.07h0a6,6,0,1,0,0-12.07h0"/><path class="cls-8" d="M1548.32,897.52h0a6,6,0,1,0,0,12.07,6,6,0,0,0,0-12.07"/><path class="cls-8" d="M1574.33,897.52a6,6,0,0,0,0,12.07h0a6,6,0,0,0,0-12.07"/><path class="cls-8" d="M1600.39,897.52a6,6,0,1,0,0,12.07h0a6,6,0,1,0,0-12.07"/><path class="cls-8" d="M1626.5,897.52h0a6,6,0,1,0,0,12.07h0a6,6,0,0,0,0-12.07"/><path class="cls-8" d="M1652.53,897.52a6,6,0,1,0,6.12,6,6.06,6.06,0,0,0-6.12-6"/><path class="cls-8" d="M1678.69,897.52a6,6,0,1,0,0,12.07,6,6,0,1,0,0-12.07h0"/><path class="cls-8" d="M1704.71,897.52a6,6,0,1,0,6,6,6,6,0,0,0-6-6"/><path class="cls-8" d="M1730.75,897.51a6,6,0,1,0,6.15,6,6.07,6.07,0,0,0-6.15-6"/><path class="cls-8" d="M1756.89,897.51a6,6,0,1,0,6,6,6.1,6.1,0,0,0-6-6"/><path class="cls-8" d="M1783,897.52a6,6,0,1,0,6,6,6.08,6.08,0,0,0-6-6"/><path class="cls-8" d="M1809,897.51a6,6,0,0,0,0,12.08h0a6,6,0,0,0,0-12.08"/><path class="cls-8" d="M1835,897.52a6,6,0,0,0,0,12.07h0a6,6,0,1,0,0-12.07h0"/><path class="cls-8" d="M1861.24,897.52h0a6,6,0,1,0,0,12.07,6,6,0,0,0,0-12.07"/><path class="cls-8" d="M1170.25,978.54a6,6,0,1,0,6,6,6.09,6.09,0,0,0-6-6"/><path class="cls-8" d="M1196.25,978.54a6,6,0,0,0,0,12.07h0a6,6,0,0,0,0-12.07"/><path class="cls-8" d="M1222.23,978.54a6,6,0,0,0,0,12.07h0a6,6,0,1,0,0-12.07h0"/><path class="cls-8" d="M1248.47,978.54a6,6,0,1,0,0,12.07,6,6,0,0,0,0-12.07"/><path class="cls-8" d="M1274.48,978.54a6,6,0,0,0,0,12.07h0a6,6,0,0,0,0-12.07"/><path class="cls-8" d="M1300.53,978.54a6,6,0,1,0,0,12.07h0a6,6,0,1,0,0-12.07"/><path class="cls-8" d="M1326.65,978.54a6,6,0,1,0,0,12.07h0a6,6,0,0,0,0-12.07"/><path class="cls-8" d="M1352.68,978.54a6,6,0,1,0,6.11,6,6.06,6.06,0,0,0-6.11-6"/><path class="cls-8" d="M1378.84,978.54a6,6,0,1,0,6.05,6,6.1,6.1,0,0,0-6.05-6h0"/><path class="cls-8" d="M1404.85,978.54a6,6,0,1,0,6.06,6,6,6,0,0,0-6.06-6"/><path class="cls-8" d="M1430.91,978.54a6,6,0,1,0,6.14,6,6.06,6.06,0,0,0-6.14-6"/><path class="cls-8" d="M1457,978.54a6,6,0,1,0,6,6,6.09,6.09,0,0,0-6-6"/><path class="cls-9" d="M857.33,978.54a6,6,0,1,0,6,6,6.09,6.09,0,0,0-6-6"/><path class="cls-9" d="M883.34,978.54a6,6,0,0,0,0,12.07h0a6,6,0,0,0,0-12.07"/><path class="cls-9" d="M909.31,978.54a6,6,0,0,0,0,12.07h0a6,6,0,1,0,0-12.07h0"/><path class="cls-9" d="M935.54,978.54a6,6,0,1,0,0,12.07,6,6,0,1,0,0-12.07"/><path class="cls-9" d="M961.56,978.54a6,6,0,0,0,0,12.07h0a6,6,0,0,0,0-12.07"/><path class="cls-9" d="M987.62,978.54a6,6,0,1,0,0,12.07h0a6,6,0,1,0,0-12.07"/><path class="cls-9" d="M1013.72,978.54a6,6,0,1,0,0,12.07h0a6,6,0,0,0,0-12.07"/><path class="cls-8" d="M1039.76,978.54a6,6,0,1,0,6.12,6,6.12,6.12,0,0,0-6.12-6"/><path class="cls-8" d="M1065.92,978.54a6.12,6.12,0,0,0-6.06,5q1,2.75,2,5.52a6.21,6.21,0,0,0,4.1,1.53,6,6,0,1,0,0-12.07h0"/><path class="cls-9" d="M1059.86,983.56a5.69,5.69,0,0,0-.09,1,5.93,5.93,0,0,0,2.06,4.5q-1-2.77-2-5.52"/><path class="cls-8" d="M1091.93,978.54a6,6,0,0,0-3.87,1.41q1.82,5.28,3.41,10.64a3.62,3.62,0,0,0,.47,0,6,6,0,1,0,0-12.07"/><path class="cls-9" d="M1088.06,980a6,6,0,0,0,3.41,10.64q-1.6-5.36-3.41-10.64"/><path class="cls-8" d="M1118,978.54a6,6,0,1,0,6.15,6,6.05,6.05,0,0,0-6.15-6"/><path class="cls-8" d="M1144.12,978.54a6,6,0,1,0,6,6,6.09,6.09,0,0,0-6-6"/><path class="cls-8" d="M1483.17,978.54a6,6,0,1,0,6,6,6.09,6.09,0,0,0-6-6"/><path class="cls-8" d="M1509.18,978.54a6,6,0,1,0,0,12.07h0a6,6,0,0,0,0-12.07"/><path class="cls-8" d="M1535.15,978.54a6,6,0,0,0,0,12.07h0a6,6,0,1,0,0-12.07h0"/><path class="cls-8" d="M1561.39,978.54a6,6,0,1,0,0,12.07,6,6,0,0,0,0-12.07"/><path class="cls-8" d="M1587.4,978.54a6,6,0,0,0,0,12.07h0a6,6,0,0,0,0-12.07"/><path class="cls-8" d="M1613.46,978.54a6,6,0,1,0,0,12.07h0a6,6,0,1,0,0-12.07"/><path class="cls-8" d="M1639.57,978.54a6,6,0,1,0,0,12.07h0a6,6,0,0,0,0-12.07"/><path class="cls-8" d="M1665.6,978.54a6,6,0,1,0,6.12,6,6.06,6.06,0,0,0-6.12-6"/><path class="cls-8" d="M1691.76,978.54a6,6,0,1,0,6.06,6,6.1,6.1,0,0,0-6.06-6h0"/><path class="cls-8" d="M1717.78,978.54a6,6,0,1,0,6,6,6,6,0,0,0-6-6"/><path class="cls-8" d="M1743.83,978.54a6,6,0,1,0,6.14,6,6.05,6.05,0,0,0-6.14-6"/><path class="cls-8" d="M1770,978.54a6,6,0,1,0,6,6,6.09,6.09,0,0,0-6-6"/><path class="cls-8" d="M1796.09,978.54a6,6,0,1,0,0,12.07,6,6,0,0,0,0-12.07"/><path class="cls-8" d="M1822.1,978.54a6,6,0,1,0,0,12.07h0a6,6,0,0,0,0-12.07"/><path class="cls-8" d="M1848.08,978.54a6,6,0,0,0,0,12.07h0a6,6,0,1,0,0-12.07h0"/><path class="cls-8" d="M1874.3,978.54a6,6,0,1,0,0,12.07,6,6,0,1,0,0-12.07"/><path class="cls-8" d="M1157.18,951.53a6,6,0,1,0,6,6,6.09,6.09,0,0,0-6-6"/><path class="cls-8" d="M1183.18,951.53a6,6,0,0,0,0,12.07h0a6,6,0,0,0,0-12.07"/><path class="cls-8" d="M1209.16,951.53a6,6,0,0,0,0,12.07h0a6,6,0,1,0,0-12.07h0"/><path class="cls-8" d="M1235.4,951.54h0a6,6,0,1,0,0,12.07,6,6,0,0,0,0-12.07"/><path class="cls-8" d="M1261.41,951.53a6,6,0,0,0,0,12.07h0a6,6,0,0,0,0-12.07"/><path class="cls-8" d="M1287.46,951.53a6,6,0,1,0,0,12.07h0a6,6,0,1,0,0-12.07"/><path class="cls-8" d="M1313.58,951.54h0a6,6,0,1,0,0,12.06h0a6,6,0,0,0,0-12.06"/><path class="cls-8" d="M1339.61,951.53a6,6,0,1,0,6.11,6,6.06,6.06,0,0,0-6.11-6"/><path class="cls-8" d="M1365.77,951.54a6,6,0,1,0,6,6,6.09,6.09,0,0,0-6-6h0"/><path class="cls-8" d="M1391.78,951.53a6,6,0,1,0,6.06,6,6,6,0,0,0-6.06-6"/><path class="cls-8" d="M1417.83,951.53a6,6,0,1,0,6.15,6,6.06,6.06,0,0,0-6.15-6"/><path class="cls-8" d="M1444,951.53a6,6,0,1,0,6,6,6.09,6.09,0,0,0-6-6"/><path class="cls-9" d="M844.26,951.53a6,6,0,1,0,6,6,6.09,6.09,0,0,0-6-6"/><path class="cls-9" d="M870.27,951.53a6,6,0,1,0,0,12.07h0a6,6,0,0,0,0-12.07"/><path class="cls-9" d="M896.24,951.53a6,6,0,0,0,0,12.07h0a6,6,0,1,0,0-12.07h0"/><path class="cls-9" d="M922.48,951.54h0a6,6,0,1,0,0,12.07,6,6,0,0,0,0-12.07"/><path class="cls-9" d="M948.49,951.53a6,6,0,0,0,0,12.07h0a6,6,0,0,0,0-12.07"/><path class="cls-9" d="M974.54,951.53a6,6,0,1,0,0,12.07h0a6,6,0,1,0,0-12.07"/><path class="cls-9" d="M1000.66,951.54h0a6,6,0,1,0,0,12.06h0a6,6,0,0,0,0-12.06"/><path class="cls-8" d="M1026.69,951.53a6,6,0,1,0,6.11,6,6.06,6.06,0,0,0-6.11-6"/><path class="cls-8" d="M1052.85,951.54a6.15,6.15,0,0,0-5.68,3.71q2.13,4,4.12,8.16a6.25,6.25,0,0,0,1.57.19,6,6,0,1,0,0-12.06h0"/><path class="cls-9" d="M1047.17,955.25a6,6,0,0,0,4.12,8.16q-2-4.12-4.12-8.16"/><path class="cls-8" d="M1078.86,951.53a6,6,0,0,0-2.25.44q2.6,5.44,5,11a6,6,0,0,0-2.7-11.44"/><path class="cls-9" d="M1076.61,952a6,6,0,0,0,2.25,11.64,6,6,0,0,0,2.7-.64q-2.36-5.57-5-11"/><path class="cls-8" d="M1104.91,951.53a6,6,0,1,0,6.15,6,6.06,6.06,0,0,0-6.15-6"/><path class="cls-8" d="M1131.05,951.53a6,6,0,1,0,6,6,6.09,6.09,0,0,0-6-6"/><path class="cls-8" d="M1470.1,951.53a6,6,0,1,0,6,6,6.09,6.09,0,0,0-6-6"/><path class="cls-8" d="M1496.11,951.53a6,6,0,1,0,0,12.07h0a6,6,0,0,0,0-12.07"/><path class="cls-8" d="M1522.09,951.53a6,6,0,0,0,0,12.07h0a6,6,0,1,0,0-12.07h0"/><path class="cls-8" d="M1548.32,951.54h0a6,6,0,1,0,6,6,6,6,0,0,0-6-6"/><path class="cls-8" d="M1574.33,951.53a6,6,0,0,0,0,12.07h0a6,6,0,1,0,0-12.07"/><path class="cls-8" d="M1600.39,951.53a6,6,0,1,0,0,12.07h0a6,6,0,1,0,0-12.07"/><path class="cls-8" d="M1626.5,951.54h0a6,6,0,1,0,0,12.06h0a6,6,0,0,0,0-12.06"/><path class="cls-8" d="M1652.53,951.53a6,6,0,1,0,6.12,6,6.07,6.07,0,0,0-6.12-6"/><path class="cls-8" d="M1678.69,951.54a6,6,0,1,0,6,6,6.09,6.09,0,0,0-6-6h0"/><path class="cls-8" d="M1704.71,951.53a6,6,0,1,0,6,6,6,6,0,0,0-6-6"/><path class="cls-8" d="M1730.75,951.53a6,6,0,1,0,6.15,6,6.06,6.06,0,0,0-6.15-6"/><path class="cls-8" d="M1756.89,951.53a6,6,0,1,0,6,6,6.09,6.09,0,0,0-6-6"/><path class="cls-8" d="M1783,951.53a6,6,0,1,0,6,6,6.09,6.09,0,0,0-6-6"/><path class="cls-8" d="M1809,951.53a6,6,0,1,0,0,12.07h0a6,6,0,0,0,0-12.07"/><path class="cls-8" d="M1835,951.53a6,6,0,0,0,0,12.07h0a6,6,0,1,0,0-12.07h0"/><path class="cls-8" d="M1861.24,951.54h0a6,6,0,1,0,0,12.07,6,6,0,0,0,0-12.07"/><path class="cls-8" d="M1170.25,1032.55a6,6,0,1,0,6,6,6.08,6.08,0,0,0-6-6"/><path class="cls-8" d="M1196.25,1032.55a6,6,0,0,0,0,12.07h0a6,6,0,1,0,0-12.07"/><path class="cls-8" d="M1222.24,1032.55a6,6,0,0,0,0,12.07h0a6,6,0,1,0,0-12.07h0"/><path class="cls-8" d="M1248.47,1032.55h0a6,6,0,1,0,0,12.07,6,6,0,0,0,0-12.07"/><path class="cls-8" d="M1274.48,1032.55a6,6,0,0,0,0,12.07h0a6,6,0,0,0,0-12.07"/><path class="cls-8" d="M1300.53,1032.55a6,6,0,1,0,0,12.07h0a6,6,0,1,0,0-12.07"/><path class="cls-8" d="M1326.65,1032.55h0a6,6,0,1,0,0,12.07h0a6,6,0,0,0,0-12.07"/><path class="cls-8" d="M1352.68,1032.55a6,6,0,1,0,6.11,6,6,6,0,0,0-6.11-6"/><path class="cls-8" d="M1378.84,1032.55a6,6,0,1,0,6.05,6,6.1,6.1,0,0,0-6.05-6h0"/><path class="cls-8" d="M1404.85,1032.55a6,6,0,1,0,6.06,6,6,6,0,0,0-6.06-6"/><path class="cls-8" d="M1430.91,1032.55a6,6,0,1,0,6.14,6,6.05,6.05,0,0,0-6.14-6"/><path class="cls-8" d="M1457,1032.55a6,6,0,1,0,6,6,6.09,6.09,0,0,0-6-6"/><path class="cls-9" d="M857.33,1032.55a6,6,0,1,0,6,6,6.08,6.08,0,0,0-6-6"/><path class="cls-9" d="M883.34,1032.55a6,6,0,0,0,0,12.07h0a6,6,0,0,0,0-12.07"/><path class="cls-9" d="M909.32,1032.55a6,6,0,0,0,0,12.07h0a6,6,0,1,0,0-12.07h0"/><path class="cls-9" d="M935.55,1032.55h0a6,6,0,1,0,0,12.07,6,6,0,1,0,0-12.07"/><path class="cls-9" d="M961.56,1032.55a6,6,0,0,0,0,12.07h0a6,6,0,0,0,0-12.07"/><path class="cls-9" d="M987.62,1032.55a6,6,0,1,0,0,12.07h0a6,6,0,1,0,0-12.07"/><path class="cls-9" d="M1013.73,1032.55h0a6,6,0,1,0,0,12.07h0a6,6,0,0,0,0-12.07"/><path class="cls-8" d="M1043,1033.51c.47,3,.88,6.08,1.22,9.15a5.95,5.95,0,0,0-1.22-9.15"/><path class="cls-9" d="M1039.76,1032.55a6,6,0,1,0,0,12.07,6.18,6.18,0,0,0,4.5-2c-.34-3.07-.75-6.13-1.22-9.15a6.06,6.06,0,0,0-3.28-1"/><path class="cls-8" d="M1064.71,1032.67a6,6,0,0,0,1.22,11.95h.2q-.56-6-1.42-11.95"/><path class="cls-9" d="M1065.92,1032.55a6.13,6.13,0,0,0-1.21.12q.87,5.92,1.42,11.95a6,6,0,0,0-.2-12.07h0"/><path class="cls-8" d="M1091.93,1032.55a6,6,0,1,0,2,11.72q-.49-5.87-1.24-11.67a7,7,0,0,0-.81,0"/><path class="cls-9" d="M1092.74,1032.6q.75,5.81,1.24,11.67a6,6,0,0,0-1.24-11.67"/><path class="cls-8" d="M1118,1032.55a6,6,0,1,0,6.15,6,6,6,0,0,0-6.15-6"/><path class="cls-8" d="M1144.12,1032.55a6,6,0,1,0,6,6,6.09,6.09,0,0,0-6-6"/><path class="cls-8" d="M1483.17,1032.55a6,6,0,1,0,6,6,6.08,6.08,0,0,0-6-6"/><path class="cls-8" d="M1509.18,1032.55a6,6,0,1,0,0,12.07h0a6,6,0,0,0,0-12.07"/><path class="cls-8" d="M1535.15,1032.55a6,6,0,0,0,0,12.07h0a6,6,0,1,0,0-12.07h0"/><path class="cls-8" d="M1561.39,1032.55h0a6,6,0,1,0,0,12.07,6,6,0,0,0,0-12.07"/><path class="cls-8" d="M1587.4,1032.55a6,6,0,0,0,0,12.07h0a6,6,0,0,0,0-12.07"/><path class="cls-8" d="M1613.46,1032.55a6,6,0,1,0,0,12.07h0a6,6,0,1,0,0-12.07"/><path class="cls-8" d="M1639.58,1032.55h0a6,6,0,1,0,0,12.07h0a6,6,0,0,0,0-12.07"/><path class="cls-8" d="M1665.6,1032.55a6,6,0,1,0,6.12,6,6.06,6.06,0,0,0-6.12-6"/><path class="cls-8" d="M1691.76,1032.55a6,6,0,1,0,6.06,6,6.1,6.1,0,0,0-6.06-6h0"/><path class="cls-8" d="M1717.78,1032.55a6,6,0,1,0,6,6,6,6,0,0,0-6-6"/><path class="cls-8" d="M1743.83,1032.55a6,6,0,1,0,6.14,6,6,6,0,0,0-6.14-6"/><path class="cls-8" d="M1770,1032.55a6,6,0,1,0,6,6,6.09,6.09,0,0,0-6-6"/><path class="cls-8" d="M1796.09,1032.55a6,6,0,1,0,6,6,6.09,6.09,0,0,0-6-6"/><path class="cls-8" d="M1822.1,1032.55a6,6,0,1,0,0,12.07h0a6,6,0,0,0,0-12.07"/><path class="cls-8" d="M1848.08,1032.55a6,6,0,0,0,0,12.07h0a6,6,0,1,0,0-12.07h0"/><path class="cls-8" d="M1874.31,1032.55h0a6,6,0,1,0,0,12.07,6,6,0,0,0,0-12.07"/><path class="cls-8" d="M1157.18,1005.55a6,6,0,1,0,6,6,6.08,6.08,0,0,0-6-6"/><path class="cls-8" d="M1183.18,1005.54a6,6,0,0,0,0,12.08h0a6,6,0,1,0,0-12.08"/><path class="cls-8" d="M1209.17,1005.55a6,6,0,0,0,0,12.07h0a6,6,0,1,0,0-12.07"/><path class="cls-8" d="M1235.4,1005.55h0a6,6,0,1,0,0,12.07,6,6,0,0,0,0-12.07"/><path class="cls-8" d="M1261.41,1005.55a6,6,0,0,0,0,12.07h0a6,6,0,0,0,0-12.07"/><path class="cls-8" d="M1287.46,1005.55a6,6,0,1,0,6.14,6,6.06,6.06,0,0,0-6.14-6"/><path class="cls-8" d="M1313.58,1005.55h0a6,6,0,1,0,0,12.07h0a6,6,0,0,0,0-12.07"/><path class="cls-8" d="M1339.61,1005.55a6,6,0,1,0,6.11,6,6,6,0,0,0-6.11-6"/><path class="cls-8" d="M1365.77,1005.55a6,6,0,1,0,6,6,6.1,6.1,0,0,0-6-6h0"/><path class="cls-8" d="M1391.78,1005.55a6,6,0,1,0,6.06,6,6,6,0,0,0-6.06-6"/><path class="cls-8" d="M1417.83,1005.54a6,6,0,1,0,6.15,6.05,6.07,6.07,0,0,0-6.15-6.05"/><path class="cls-8" d="M1444,1005.54a6,6,0,1,0,6,6,6.1,6.1,0,0,0-6-6"/><path class="cls-9" d="M844.26,1005.55a6,6,0,1,0,6,6,6.08,6.08,0,0,0-6-6"/><path class="cls-9" d="M870.27,1005.54a6,6,0,0,0,0,12.08h0a6,6,0,0,0,0-12.08"/><path class="cls-9" d="M896.25,1005.55a6,6,0,0,0,0,12.07h0a6,6,0,1,0,0-12.07"/><path class="cls-9" d="M922.48,1005.55h0a6,6,0,1,0,0,12.07,6,6,0,0,0,0-12.07"/><path class="cls-9" d="M948.49,1005.55a6,6,0,0,0,0,12.07h0a6,6,0,0,0,0-12.07"/><path class="cls-9" d="M974.54,1005.55a6,6,0,1,0,6.14,6,6,6,0,0,0-6.14-6"/><path class="cls-9" d="M1000.66,1005.55h0a6,6,0,1,0,0,12.07h0a6,6,0,0,0,0-12.07"/><path class="cls-9" d="M1026.69,1005.55a6,6,0,1,0,6.11,6,6,6,0,0,0-6.11-6"/><path class="cls-8" d="M1052.85,1005.55a6,6,0,1,0,6.05,6,6.09,6.09,0,0,0-6.05-6h0"/><path class="cls-8" d="M1078.86,1005.55a6,6,0,1,0,6.06,6,6,6,0,0,0-6.06-6"/><path class="cls-8" d="M1104.91,1005.54a6,6,0,1,0,6.15,6.05,6.07,6.07,0,0,0-6.15-6.05"/><path class="cls-8" d="M1131.05,1005.54a6,6,0,1,0,6,6,6.1,6.1,0,0,0-6-6"/><path class="cls-8" d="M1470.1,1005.55a6,6,0,1,0,6,6,6.08,6.08,0,0,0-6-6"/><path class="cls-8" d="M1496.11,1005.54a6,6,0,0,0,0,12.08h0a6,6,0,0,0,0-12.08"/><path class="cls-8" d="M1522.09,1005.55a6,6,0,0,0,0,12.07h0a6,6,0,1,0,0-12.07"/><path class="cls-8" d="M1548.32,1005.55h0a6,6,0,1,0,0,12.07,6,6,0,0,0,0-12.07"/><path class="cls-8" d="M1574.33,1005.55a6,6,0,0,0,0,12.07h0a6,6,0,0,0,0-12.07"/><path class="cls-8" d="M1600.39,1005.55a6,6,0,1,0,6.13,6,6.07,6.07,0,0,0-6.13-6"/><path class="cls-8" d="M1626.5,1005.55h0a6,6,0,1,0,0,12.07h0a6,6,0,0,0,0-12.07"/><path class="cls-8" d="M1652.53,1005.55a6,6,0,1,0,6.12,6,6.06,6.06,0,0,0-6.12-6"/><path class="cls-8" d="M1678.7,1005.55a6,6,0,1,0,0,12.07,6,6,0,1,0,0-12.07h0"/><path class="cls-8" d="M1704.71,1005.55a6,6,0,1,0,6,6,6,6,0,0,0-6-6"/><path class="cls-8" d="M1730.75,1005.54a6,6,0,1,0,6.15,6.05,6.06,6.06,0,0,0-6.15-6.05"/><path class="cls-8" d="M1756.89,1005.54a6,6,0,1,0,6,6,6.09,6.09,0,0,0-6-6"/><path class="cls-8" d="M1783,1005.55a6,6,0,1,0,6,6,6.08,6.08,0,0,0-6-6"/><path class="cls-8" d="M1809,1005.54a6,6,0,0,0,0,12.08h0a6,6,0,0,0,0-12.08"/><path class="cls-8" d="M1835,1005.55a6,6,0,0,0,0,12.07h0a6,6,0,1,0,0-12.07"/><path class="cls-8" d="M1861.24,1005.55h0a6,6,0,1,0,0,12.07,6,6,0,0,0,0-12.07"/><path class="cls-8" d="M1157.18,1059.56a6,6,0,1,0,6,6,6.08,6.08,0,0,0-6-6"/><path class="cls-8" d="M1183.18,1059.55a6,6,0,0,0,0,12.08h0a6,6,0,1,0,0-12.08"/><path class="cls-8" d="M1209.15,1059.56a6,6,0,0,0,0,12.07h0a6,6,0,1,0,0-12.07h0"/><path class="cls-8" d="M1235.4,1059.56h0a6,6,0,1,0,0,12.07,6,6,0,0,0,0-12.07"/><path class="cls-8" d="M1261.41,1059.56a6,6,0,0,0,0,12.07h0a6,6,0,0,0,0-12.07"/><path class="cls-8" d="M1287.46,1059.56a6,6,0,1,0,0,12.07h0a6,6,0,1,0,0-12.07"/><path class="cls-8" d="M1313.58,1059.56h0a6,6,0,1,0,0,12.07h0a6,6,0,0,0,0-12.07"/><path class="cls-8" d="M1339.61,1059.56a6,6,0,1,0,6.11,6,6,6,0,0,0-6.11-6"/><path class="cls-8" d="M1365.78,1059.56a6,6,0,1,0,6,6,6.1,6.1,0,0,0-6-6"/><path class="cls-8" d="M1391.78,1059.56a6,6,0,1,0,6.06,6,6,6,0,0,0-6.06-6"/><path class="cls-8" d="M1417.83,1059.56a6,6,0,1,0,6.15,6,6.05,6.05,0,0,0-6.15-6"/><path class="cls-8" d="M1444,1059.56a6,6,0,1,0,6,6,6.09,6.09,0,0,0-6-6"/><path class="cls-8" d="M850.29,1065.72H838.08a6.11,6.11,0,0,0,12.21,0"/><path class="cls-9" d="M844.26,1059.56a6.08,6.08,0,0,0-6.18,6v.12h12.21v-.12a6,6,0,0,0-6-6"/><path class="cls-8" d="M876.3,1065.72H864.23a6,6,0,0,0,6,5.91h0a6,6,0,0,0,6-5.91"/><path class="cls-9" d="M870.27,1059.55a6.06,6.06,0,0,0-6,6v.13H876.3v-.12a6.07,6.07,0,0,0-6-6"/><path class="cls-8" d="M902.45,1065.72H890.23a6,6,0,0,0,6,5.91h0a6.09,6.09,0,0,0,6.2-5.91"/><path class="cls-9" d="M896.23,1059.56a6,6,0,0,0-6,6v.12h12.22v-.12a6.1,6.1,0,0,0-6.2-6h0"/><path class="cls-8" d="M928.5,1065.72H916.33a6.1,6.1,0,0,0,6.15,5.91,6,6,0,0,0,6-5.91"/><path class="cls-9" d="M922.48,1059.56h0a6.11,6.11,0,0,0-6.15,6v.12H928.5v-.12a6,6,0,0,0-6-6"/><path class="cls-8" d="M954.52,1065.72H942.46a6,6,0,0,0,6,5.91h0a6,6,0,0,0,6-5.91"/><path class="cls-9" d="M948.49,1059.56a6.05,6.05,0,0,0-6,6v.12h12.06v-.13a6,6,0,0,0-6-6"/><path class="cls-8" d="M980.68,1065.72H968.46a6,6,0,0,0,6.08,5.91h0a6.06,6.06,0,0,0,6.12-5.91"/><path class="cls-9" d="M974.54,1059.56a6,6,0,0,0-6.08,6v.12h12.22v-.12a6.06,6.06,0,0,0-6.14-6"/><path class="cls-8" d="M1006.68,1065.72H994.61a6,6,0,0,0,6,5.91h0a6,6,0,0,0,6-5.91"/><path class="cls-9" d="M1000.66,1059.56h0a6,6,0,0,0-6,6v.12h12.07v-.12a6,6,0,0,0-6-6"/><path class="cls-8" d="M1032.8,1065.72h-12.16a6.08,6.08,0,0,0,12.16,0"/><path class="cls-9" d="M1026.69,1059.56a6,6,0,0,0-6.05,6v.12h12.16v-.12a6.1,6.1,0,0,0-6.11-6"/><path class="cls-8" d="M1052.86,1059.56a6,6,0,1,0,6,6,6.1,6.1,0,0,0-6-6"/><path class="cls-8" d="M1078.86,1059.56a6,6,0,0,0-4.35,1.86c0,1.42,0,2.86,0,4.3h-1.71a6,6,0,1,0,6-6.16"/><path class="cls-9" d="M1074.51,1061.42a6,6,0,0,0-1.67,4.18v.12h1.71c0-1.44,0-2.88,0-4.3"/><path class="cls-8" d="M1104.91,1059.56a6,6,0,0,0-2.64.6c0,1.85.06,3.7.06,5.56h-3.48a6.11,6.11,0,1,0,6.06-6.16"/><path class="cls-9" d="M1102.27,1060.16a6,6,0,0,0-3.43,5.44.49.49,0,0,0,0,.12h3.48c0-1.86,0-3.71-.06-5.56"/><path class="cls-8" d="M1131.05,1059.56a6,6,0,1,0,6,6,6.09,6.09,0,0,0-6-6"/><path class="cls-8" d="M1470.1,1059.56a6,6,0,1,0,6,6,6.08,6.08,0,0,0-6-6"/><path class="cls-8" d="M1496.11,1059.55a6,6,0,0,0,0,12.08h0a6,6,0,0,0,0-12.08"/><path class="cls-8" d="M1522.07,1059.56a6,6,0,0,0,0,12.07h0a6,6,0,1,0,0-12.07h0"/><path class="cls-8" d="M1548.32,1059.56h0a6,6,0,1,0,0,12.07,6,6,0,0,0,0-12.07"/><path class="cls-8" d="M1574.33,1059.56a6,6,0,0,0,0,12.07h0a6,6,0,0,0,0-12.07"/><path class="cls-8" d="M1600.39,1059.56a6,6,0,1,0,0,12.07h0a6,6,0,1,0,0-12.07"/><path class="cls-8" d="M1626.5,1059.56h0a6,6,0,1,0,0,12.07h0a6,6,0,0,0,0-12.07"/><path class="cls-8" d="M1652.53,1059.56a6,6,0,1,0,6.12,6,6.06,6.06,0,0,0-6.12-6"/><path class="cls-8" d="M1678.7,1059.56a6,6,0,1,0,0,12.07,6,6,0,1,0,0-12.07"/><path class="cls-8" d="M1704.71,1059.56a6,6,0,1,0,6,6,6,6,0,0,0-6-6"/><path class="cls-8" d="M1730.75,1059.56a6,6,0,1,0,6.15,6,6.05,6.05,0,0,0-6.15-6"/><path class="cls-8" d="M1756.89,1059.56a6,6,0,1,0,6,6,6.08,6.08,0,0,0-6-6"/><path class="cls-8" d="M1783,1059.56a6,6,0,1,0,6,6,6.08,6.08,0,0,0-6-6"/><path class="cls-8" d="M1809,1059.55a6,6,0,0,0,0,12.08h0a6,6,0,0,0,0-12.08"/><path class="cls-8" d="M1835,1059.56a6,6,0,0,0,0,12.07h0a6,6,0,1,0,0-12.07h0"/><path class="cls-8" d="M1861.24,1059.56h0a6,6,0,1,0,0,12.07,6,6,0,0,0,0-12.07"/><path class="cls-5" d="M1362.84,290.33a30.17,30.17,0,0,0,0,60.34H2541.77a30.17,30.17,0,1,0,0-60.34Z"/><path class="cls-4" d="M2381.63,728.81c.42-5.44,9.14-8.37,12.53-5.74C2403.15,730,2380.62,742.07,2381.63,728.81Zm56.6,32c6.63,3.7,23-7.26,16.33-14.87C2448.05,738.48,2425.61,753.76,2438.23,760.8Zm184-106.73c-3.11-6.38-9.78-9.28-10.09-15.43-.16-3.23,7.85-11.07,5.13-15.91-6.25-11.13-29.61-3.1-19.49,13.22,7.24,11.68-23.2,18.15-24.67,31.52a16.83,16.83,0,0,0,.69,5.62C2583.63,703.2,2633.81,677.82,2622.21,654.07ZM2481.3,674.65c-1.92-5.55-11.58-2.67-11.3,2C2470.5,685.22,2483.11,679.86,2481.3,674.65Zm121.93-71.42c7.3,3.92,14.19-8,8.68-13S2592,597.16,2603.23,603.23Zm99.46,31.66c9.43,5.42,20.93-25.39,22.25-30.77,2.26-9.19-.39-23.22,2.26-32,3.64-12,27.25-33.25,14.12-44.15-3.93-3.27-12.05-1.34-16.86,2.06-16.17,11.44-19.56,29-18.48,42.06.76,9.17,6.44,19,5.42,28.54-.87,8.05-8.92,15.82-10.88,23C2700.22,624.73,2698.83,632.68,2702.69,634.89ZM2751,523.37c5.77,2.94,14-5.17,11.82-10.57C2758,500.82,2738.36,516.94,2751,523.37Zm-313.51,449c14.76,22.5,22.46,47,23.87,73.88.21,4,.32,8,.42,12,18.14.9,36.42,3.66,54,4.41q31.47,1.32,62.95,1c9.57-.08,19.14-.35,28.71-.45,4.59,0,9.19-.08,13.77-.4.45,0,11.05-1.28,8.69-.75,14-2.43,27.58-6,41.43-8.75a48.19,48.19,0,0,1-2.24-9.11c-2.61-18,22.15-31.76,5.32-41.64-9.07-5.32-19.26,25.51-31.68,14.65-6.46-5.65,9-13.33,4.84-21.13-1.52-2.47-6.84,2.45-9.22.21-9.77-9.18,22.22-20,11.06-31.8-8.46-8.93-23.49,2.91-32.24-9.07-2.28-3.13-2.65-8.32-2.58-10.87.28-9.79,6.09-24.63,17.52-34.08,13.61-11.25,34.4-14.3,49-8.6,6.51,2.54,15.23,12.88,20.33,4.82,2.1-3.32-7.41-6.63-5.78-10.92a9.48,9.48,0,0,1,10.53-6.19c5.69,1,4.92-2.67.95-7.2-5.28-6,3.85-16.65,10.8-19,7.27-2.45,15.27,1.51,24,2.9,16.58,2.65,49.83-8.59,39.38-26-10.59-17.64-9.15-33.85,4.47-42,10.84-6.44,19.22,7.73,29.89,6.62,10-1,11.22-13.33,16.81-19.28,3.91-4.14,12.2-4.38,12.63-10.55.46-6.58-8-4.09-11-9-6.59-10.73,20.51-22.51,22.74-34.37,5.11-27.36-25.26,1.63-37.09-7.57-8.48-6.6-4.56-15.24-.34-22.43,3.26-5.56,9.38-11.07,6.73-15.88-3.4-6.17-12.94-6.3-16.6-10.75-7.3-8.91,5.43-26.43,14.91-23.72,3.11.89,5.67,5.88,10.24,8.22,3.36,1.72,9.74.93,12.82-.54,7.29-3.47,12.69-15.49,8.86-21.84-6-9.91-22.3-2.49-30.68-7.44-13.2-7.79-5.42-24.8,7.53-35.48,4.56-3.75,10.14-5.73,13.83-10.13,2.53-3,5.45-11,3.87-13.13-3.54-4.71-9.53,2.64-13.62.52-3.77-1.94-6.4-6-5-8.51,6-10.9,16.93-7.24,21.17-17.19,3-7-2.08-15.32-7.63-18.57-5.86-3.43-17.65-1.54-23.3,3.52-7.07,6.36-9,18.59-17.23,20.48-4.46,1-10.16-4-13.56-2.68-6.4,2.4-11.14,13.12-8.79,18.63,2.48,5.84,9.63,6.66,11.76,12.25.39,5-6.59,9-9.12,15-2.73,6.49-.33,13.54-2.37,18-2.48,5.39-10.59,10.13-14.54,6.1-7.54-7.71,13.39-20.23,5-29.92-7.21-8.35-26.26.76-31.07,11.77-3.34,7.62-5.44,20.29-9.07,32.25-1.44,4.72-3.05,9.21-5.54,16.3-2.05,5.81-5.72,14.37-10.65,11.79C2712,658,2714.5,644,2707,643.26c-6.79-.65-8.6,17.27-9,25.17-.25,4.61-4.66,18.32-12.22,10.17-4.59-5,6.5-26.18-9.48-26.23-7.81,0-14.48,7.52-17.51,14.46-5,11.41-3.66,31,1.53,42.47,4.23,9.32,20.8,26,10.89,35.07-4.38,4-11.78-2-15.66,2.48-2.92,3.38.85,5.35,2.65,7.66,3.48,4.47,7.42,8.1,8.14,12.58,2.2,13.53-34.44,18.49-25.49,32.31,7.26,11.21,23.74,18.74,17,29.18-4.38,6.81-17.25,11.38-22.94,5.54-6.48-6.67,3.78-16.31-2.33-22.88-2.44-2.63-6.21-3.24-7.95-2.56-8.33,3.25-3.32,19.73-11,26.2-9.09,7.7-28.92,2.31-36.76-4-7.39-5.9-9-12.16-7.25-17.37,1.55-4.74,7.42-8.7,5-11.9-4.75-6.42-13.09,7.29-19.72,4.8-6.89-2.6-9.64-13.58-6-18.54,12.41-17,45.56,4.11,55.17-15.29,1.59-3.19,1-8.83-2.17-11.25-5.29-4.1-7.81,5.11-13.74,6.12-8.39,1.42-8.4-10.67-5.71-14.14,5.24-6.77,19.06-3,27.44-10.64,7.71-7,10.14-20.32,2.18-28-5.31-5.11-13.89-4.07-18.46,2-4.79,6.38,3,14.36-3.2,19.55-3.46,2.91-8.51-2.55-12.8-1.07-5.28,1.84-7.6,12-12.32,15-4,2.5-13.2-.73-13.88-6.29-1.37-11.15,24.46-11.37,22.84-20.36-2.25-12.48-23.08-14.52-33.09-6.68-5.58,4.36-8.46,12.3-13.57,16.94-5.78,4.32-12.62-4.65-18.87,2.42-4.18,4.73,1.27,11.44-1.91,15.17-4.22,5-13.13-2.33-20.54,5.59-10.27,11-13.46,34.49-22.93,44-4.32,4.34-11.63,6.72-15.28,3.7-8.34-6.91,6.28-16-1.57-21.26-4.33-2.87-6.91,12.55-12.6,9-9.35-5.92,2-13.07-3.22-18.88-5.57-6.2-14.23,1.42-19.4,9.21-5.29,8-5.72,17.27-4.56,27.13,1.42,12.13,9.27,24.92,1.68,35.27-4.82,6.58-13.26,9.4-16.54,5.68-6-6.8,12.64-19.94,4.16-26.75-3.12-2.5-7.07.47-10.51,4.59-6,7.2-10.05,18.72-11.73,25.38-1.3,5.15-10.6,26.78-16.62,54.27C2390.2,917.8,2418.63,943.64,2437.52,972.4Zm478.64-359.55c-.67-6.31-8.46-13-14.18-11.5-16.64,4.31-5.15,31.74-22.33,34.77-1.71.3-4.81-5.14-6.76-3.89-3.35,2.15-2.56,7.4-1,9.75C2882.51,657.57,2917.69,627.17,2916.16,612.85Zm-110,210c-2.27-4.58-12.12-3.74-14.79-1.5C2779.94,830.93,2812.86,836.35,2806.15,822.81Zm21.25-118.48c1.22,9.84,18.86,1.73,17.77-7.65C2843.7,684,2826.53,697.37,2827.4,704.33ZM2672.79,940.6c-2.52,1.34-3.54,4.94-6.16,7.48-4.14,4-11.78,6.45-10.63,11,4.52,17.88,39.6-4,29.55-15.81C2683.27,940.58,2676.07,938.85,2672.79,940.6Zm41.87-30.77c-1.35-.47-1.86-2.94-3.24-2.76-4.08.53-6.26,5.71-4.9,9.8,3.32,10,20.91-.25,15.34-6.09C2720.45,909.3,2716.84,910.57,2714.66,909.83Z"/><path class="cls-10" d="M837.78,1181.82a116.1,116.1,0,1,1,116.1-116.1A116.23,116.23,0,0,1,837.78,1181.82Zm0-207.32A91.22,91.22,0,1,0,929,1065.72,91.32,91.32,0,0,0,837.78,974.5Z"/><path class="cls-11" d="M837.78,1206.21c-77.46,0-140.49-63-140.49-140.49a3.73,3.73,0,0,1,7.46,0c0,73.35,59.68,133,133,133s133-59.68,133-133a3.73,3.73,0,0,1,7.46,0C978.27,1143.19,915.25,1206.21,837.78,1206.21Z"/><path class="cls-3" d="M893.76,1065.72a56,56,0,1,1-56-56A56,56,0,0,1,893.76,1065.72Z"/><path class="cls-12" d="M866.39,1065.72a28.61,28.61,0,1,1-28.61-28.61A28.6,28.6,0,0,1,866.39,1065.72Z"/><path class="cls-3" d="M2360,1065.72a56,56,0,1,1-56-56A56,56,0,0,1,2360,1065.72Z"/><path class="cls-3" d="M2511.72,1070.7a5,5,0,0,1-5-5c0-111.81-91-202.76-202.77-202.76s-202.76,90.95-202.76,202.76a5,5,0,1,1-9.95,0C2091.27,948.43,2186.69,853,2304,853s212.72,95.43,212.72,212.72A5,5,0,0,1,2511.72,1070.7Z"/><path class="cls-3" d="M1984.58,1070.7a5,5,0,0,1-5-5C1979.6,948.43,2075,853,2192.32,853H2304a5,5,0,0,1,0,10H2192.32c-111.81,0-202.77,90.95-202.77,202.76A5,5,0,0,1,1984.58,1070.7Z"/><path class="cls-13" d="M2332.59,1065.72a28.61,28.61,0,1,1-28.61-28.61A28.61,28.61,0,0,1,2332.59,1065.72Z"/><path class="cls-10" d="M2600,1078.16H2458.23v-12.44c0-85.05-69.2-154.25-154.25-154.25s-154.25,69.2-154.25,154.25v12.44H992v-12.44c0-85.05-69.19-154.25-154.25-154.25s-154.25,69.2-154.25,154.25v12.44H564.94c-100.14,0-181.61-81.47-181.61-181.62V496c0-100.14,81.47-181.62,181.61-181.62h537.15l136-84.58H2600c100.14,0,181.62,81.47,181.62,181.61V896.54C2781.66,996.69,2700.18,1078.16,2600,1078.16Zm-117.36-24.88H2600c86.43,0,156.74-70.31,156.74-156.74V411.4c0-86.42-70.31-156.73-156.74-156.73H1245.2l-136,84.58H564.94c-86.42,0-156.73,70.32-156.73,156.74V896.54c0,86.43,70.31,156.74,156.73,156.74h94.14c6.41-93,84.11-166.69,178.7-166.69s172.29,73.7,178.7,166.69h1108.8c6.41-93,84.11-166.69,178.7-166.69S2476.27,960.29,2482.68,1053.28Z"/><path class="cls-10" d="M2304,1181.82a116.1,116.1,0,1,1,116.1-116.1A116.24,116.24,0,0,1,2304,1181.82Zm0-207.32a91.22,91.22,0,1,0,91.22,91.22A91.32,91.32,0,0,0,2304,974.5Z"/><rect class="cls-10" x="492.79" y="1156.94" width="1089.7" height="24.88"/><rect class="cls-10" x="2035.29" y="1156.94" width="472.7" height="24.88"/><path class="cls-10" d="M451.33,383.47H426.45V242.23H586.5c50.2,0,79,30.83,79,84.58H640.62c0-40.17-17.7-59.71-54.12-59.71H451.33Z"/><path class="cls-10" d="M599.77,680.1h-204V655.22h204c33,0,56-20.46,56-49.76V451.21h24.88V605.46C680.63,648.71,646.63,680.1,599.77,680.1Z"/><path class="cls-3" d="M574,873.23a46.65,46.65,0,1,1-46.65-46.65A46.65,46.65,0,0,1,574,873.23Z"/><rect class="cls-3" x="1021.89" y="422.6" width="13.06" height="160.47"/><rect class="cls-3" x="1360.03" y="374.08" width="13.06" height="225.16"/><rect class="cls-3" x="1698.18" y="433.79" width="13.06" height="241.33"/><rect class="cls-3" x="2036.33" y="502.83" width="13.06" height="138.7"/><rect class="cls-3" x="2374.47" y="374.08" width="13.06" height="128.75"/><polygon class="cls-10" points="2369.14 682.72 935.99 682.72 989.81 755.04 935.99 827.38 2369.14 827.38 2315.31 755.04 2369.14 682.72"/><path class="cls-11" d="M1107.27,723.94A32.67,32.67,0,0,1,1120,734.45a38,38,0,0,1,6.53,15.85h-25.24a13.74,13.74,0,0,0-4.9-5.88,12.94,12.94,0,0,0-7.28-2.1,11.43,11.43,0,0,0-9.55,4.53q-3.51,4.53-3.5,12.19t3.5,12.19a11.43,11.43,0,0,0,9.55,4.53,13,13,0,0,0,7.28-2.11,13.62,13.62,0,0,0,4.9-5.88h25.24a38,38,0,0,1-6.53,15.86,32.86,32.86,0,0,1-12.72,10.52,41,41,0,0,1-17.74,3.72q-11.55,0-20.06-4.91a33.17,33.17,0,0,1-13.11-13.75,46.7,46.7,0,0,1,0-40.34,33.17,33.17,0,0,1,13.11-13.75q8.52-4.9,20.06-4.91A40.66,40.66,0,0,1,1107.27,723.94Z"/><path class="cls-11" d="M1229.84,724.69a37.29,37.29,0,0,1,14.18,14,41.49,41.49,0,0,1,0,40.33,37.51,37.51,0,0,1-14.24,14,40.94,40.94,0,0,1-39.47,0A37.93,37.93,0,0,1,1176,779a41.15,41.15,0,0,1,0-40.33,37.51,37.51,0,0,1,14.29-14,41.42,41.42,0,0,1,39.53,0ZM1199,746.37c-2.59,3-3.88,7.21-3.88,12.45s1.29,9.3,3.88,12.35,6.29,4.59,11.11,4.59,8.41-1.53,11-4.59S1225,764,1225,758.82s-1.29-9.4-3.88-12.45-6.25-4.59-11-4.59S1201.58,743.31,1199,746.37Z"/><polygon class="cls-11" points="1387.4 720.97 1387.4 797.33 1363.57 797.33 1363.57 759.26 1351.81 797.33 1331.32 797.33 1319.57 759.26 1319.57 797.33 1295.62 797.33 1295.62 720.97 1324.96 720.97 1341.78 766.8 1358.18 720.97 1387.4 720.97"/><rect class="cls-11" x="1435.93" y="720.97" width="23.94" height="76.36"/><polygon class="cls-11" points="1581.63 797.33 1557.69 797.33 1532.35 758.93 1532.35 797.33 1508.4 797.33 1508.4 720.97 1532.35 720.97 1557.69 760.01 1557.69 720.97 1581.63 720.97 1581.63 797.33"/><path class="cls-11" d="M1691,727.44a28.69,28.69,0,0,1,11.17,19.63H1677a9.31,9.31,0,0,0-4-3.51,14.5,14.5,0,0,0-6.26-1.24q-6.9,0-10.67,4.48T1652.27,759q0,9,4.21,13.37t12.94,4.42a16,16,0,0,0,13.37-6.68H1663.7V753.22h38.94v23.94a46,46,0,0,1-13.7,14.61q-8.73,6.09-22.11,6.1-11.86,0-20.65-4.91a33.37,33.37,0,0,1-13.48-13.75,45.63,45.63,0,0,1,0-40.34,33.47,33.47,0,0,1,13.42-13.75,41.2,41.2,0,0,1,20.49-4.91Q1681.61,720.21,1691,727.44Z"/><path class="cls-11" d="M1860.69,786.65a23.28,23.28,0,0,1-9.87,8.36,35.82,35.82,0,0,1-15.42,3.07q-13.7,0-22.6-6.42t-9.65-18.82h25.45q.54,6.58,5.83,6.58a4.36,4.36,0,0,0,3-1,3.48,3.48,0,0,0,1.14-2.8,4.74,4.74,0,0,0-2.76-4.26,54.21,54.21,0,0,0-8.89-3.62,80.91,80.91,0,0,1-12-4.85,24,24,0,0,1-8.35-7.33q-3.57-4.86-3.56-12.62a20.82,20.82,0,0,1,3.83-12.67,23.61,23.61,0,0,1,10.45-7.93,39.53,39.53,0,0,1,14.94-2.7q13.69,0,21.79,6.37t8.84,18.33H1837c-.37-4-2-6-5-6a3.45,3.45,0,0,0-2.47.92,3.6,3.6,0,0,0-1,2.75q0,2.47,2.75,4a56.16,56.16,0,0,0,8.58,3.62,91.17,91.17,0,0,1,12.13,5.12,24.92,24.92,0,0,1,8.41,7.44q3.62,4.9,3.61,12.57A21.5,21.5,0,0,1,1860.69,786.65Z"/><path class="cls-11" d="M1967.19,724.69a37.22,37.22,0,0,1,14.18,14,41.49,41.49,0,0,1,0,40.33,37.56,37.56,0,0,1-14.23,14,41,41,0,0,1-39.48,0,37.93,37.93,0,0,1-14.29-14,41.15,41.15,0,0,1,0-40.33,37.51,37.51,0,0,1,14.29-14,41.42,41.42,0,0,1,39.53,0Zm-30.85,21.68c-2.59,3-3.88,7.21-3.88,12.45s1.29,9.3,3.88,12.35,6.3,4.59,11.11,4.59,8.41-1.53,11-4.59,3.89-7.17,3.89-12.35-1.3-9.4-3.89-12.45-6.25-4.59-11-4.59S1938.93,743.31,1936.34,746.37Z"/><path class="cls-11" d="M2089.92,724.69a37.29,37.29,0,0,1,14.18,14,41.49,41.49,0,0,1,0,40.33,37.58,37.58,0,0,1-14.24,14,40.94,40.94,0,0,1-39.47,0,37.93,37.93,0,0,1-14.29-14,41.15,41.15,0,0,1,0-40.33,37.51,37.51,0,0,1,14.29-14,41.42,41.42,0,0,1,39.53,0Zm-30.85,21.68c-2.59,3-3.88,7.21-3.88,12.45s1.29,9.3,3.88,12.35,6.29,4.59,11.11,4.59,8.41-1.53,11-4.59,3.89-7.17,3.89-12.35-1.3-9.4-3.89-12.45-6.25-4.59-11-4.59S2061.66,743.31,2059.07,746.37Z"/><polygon class="cls-11" points="2228.93 797.33 2204.99 797.33 2179.65 758.93 2179.65 797.33 2155.7 797.33 2155.7 720.97 2179.65 720.97 2204.99 760.01 2204.99 720.97 2228.93 720.97 2228.93 797.33"/><path class="cls-10" d="M491,910.64a59.09,59.09,0,1,1,59.09-59.09A59.16,59.16,0,0,1,491,910.64Zm0-93.3a34.21,34.21,0,1,0,34.21,34.21A34.25,34.25,0,0,0,491,817.34Z"/><path class="cls-11" d="M2947.64,574.41c-6.39-23-25.48-30-46.63-20.53a4.07,4.07,0,0,0-1.83,1.56c-11.36,7.45-19.43,23.4-30.13,31.52-7.18,5.45-19.66,3.18-28,3.23-14.41.1-28.76,1.12-42.5,5.85-11.46,3.94-23,9.83-30.81,19.45-9.36,11.58-12.42,25.39-14.87,39.76-2.78,16.23-5.49,30.08-18.23,41.36-8.26,7.31-14.17,14.36-13.82,25.81.77,25.77,34.71,19.77,49.19,12.22,24.71-12.9,40.15-35.09,68.71-41,37.6-7.84,92.81-7.69,108.57-50.86C2954.48,623.08,2953.17,594.29,2947.64,574.41Zm-23.78,83.87c-17.78,15.11-44.49,18.08-66.59,21.78-10.27,1.72-20.55,3.42-30.66,6-14,3.54-25.79,12.61-36.85,21.47-11.32,9.08-22.72,19.32-37.23,22.73-6.76,1.59-16.1,2-20-5-5.2-9.19,5.18-17.07,11.08-22.28,23.47-20.73,14.29-54.45,30.89-78.68,17.78-25.94,57.16-22.78,84.3-24,23.67-1,28.8-26.83,46.46-37.43,10.44-3.61,20.51-5.51,27.8,4.4,6,8.16,6.77,20.47,7.41,30.19C2941.86,618.88,2941.34,643.43,2923.86,658.28Z"/><path class="cls-4" d="M464.28,474.66c-12.9-5.06-27.15,6.86-33.62,16.83a3.68,3.68,0,0,0-.56,3.05A97.77,97.77,0,0,0,424,506.6c-7.12,15.59-29.07,17.5-43.94,20.91-20.2,4.63-44.9,13.56-53.5,34.26-4.8,11.56-3,24.63-6.26,36.54-3.4,12.56-14.37,22.1-20.88,33.07-8.83,14.88-12.54,38.39,10,41.23,21.95,2.76,38.42-18.64,46.72-35.8,6.39-13.23,11.66-25.24,25-32.91s30-8.43,44.11-14.09c30.17-12.13,28.43-43.93,40.74-69.17C473.8,504.49,488.79,484.29,464.28,474.66Zm2,24c-3.31,8.4-9.07,15.64-12.52,24-4.78,11.58-6.54,24.18-11,35.89-5.73,15.17-18.17,21.73-32.94,25.89-20.93,5.9-40.58,9.34-53.35,28.72-11.94,18.11-16.24,42.84-40.72,48.4-14,3.18-14.22-8.64-10.33-18.55,4-10.11,11.87-18.17,18-26.92,5.47-7.76,8-16.62,9.32-25.91,1.47-10.65.58-21.51,7-30.79,12.49-18.16,41.29-21.23,60.7-26.25,8.73-2.26,17-5.59,24.16-11.1,8.64-6.65,9.79-18.53,15.51-27.49,4.26-4.13,8.82-7.71,14.42-10C465.89,480,469.09,491.37,466.23,498.66Z"/><path class="cls-4" d="M506,423.53c-4.32-3.7-10.3-5.62-15.9-4.24-4.71,1.16-10.1,5.35-11.06,10.29a10.82,10.82,0,0,0-2.72,2.32,16.48,16.48,0,0,0-3.4,6.91c-1.5,6.23.55,12.76,3.86,18,8.2,13,25.06,11.53,34.29.61C519.76,447.17,515.42,431.59,506,423.53Zm-4.46,28.82c-12.62,11.67-26.67-9.91-16.4-17.67a10.59,10.59,0,0,0,1-.63,12.52,12.52,0,0,1,1.72-.85,2.87,2.87,0,0,0,1.81-2.28,7.24,7.24,0,0,1,4.13-1.84c2.7-.22,5.55,2,7.22,3.88C505.81,438.42,507.33,447,501.55,452.35Z"/><path class="cls-11" d="M1543.6,864.55c6.22-9.41,10.07-19.47,10.4-30.79.72-24-21.64-31.22-40.55-22.31l-.19.11c-33.48,10.26-47.83,55.22-84.31,65.82-24.24,7-49.67,11.35-72.19,23.23s-34,32.45-39.14,56.55c-5.33,24.91-28.25,33.12-49.77,40.17-20.23,6.63-40,14.38-52.89,32.29-11.55,16.09-18.32,37-8.65,55.44,8.51,16.25,29.38,23.28,46.07,26.67,20.09,4.08,40.32,2.62,60.27-1.26,29.44-5.73,64.09-16,87.46-35.64,15.63-13.12,19.18-33.56,26.82-51.45,9.36-21.88,30.29-31.47,51.15-39.92,17.45-7.08,36.71-13.36,50.81-26.38,17.32-16,19.51-36,11.83-57.53C1536,886.37,1536,876.13,1543.6,864.55Zm-24.12,85.58c-16.9,14.35-40.4,19.84-60.21,28.92-20.12,9.24-35.13,21.75-43.92,42.33-4.41,10.33-7.13,21.3-12.1,31.4-7.32,14.87-23,22.35-37.33,28.83-27.62,12.47-59,21.52-89.43,21.22-19.59-.2-45.44-4.27-58.43-20.6-15.58-19.61,4.59-49.29,21.39-60.57,23.55-15.82,54.66-15.39,75.56-36,11.83-11.66,12.85-27.6,18-42.45,6.09-17.63,20.46-29.19,36.86-36.74,30.05-13.83,67.13-12.4,92.52-35.41,22.48-20.37,36.19-56.32,71.47-52.55a13.11,13.11,0,0,1,7.16,6.23c3.12,5.54,1.72,13.13.3,18.9-3,12-13.35,20.27-15.3,32.66-2,12.65,3.51,24.6,7.08,36.35C1537.44,927,1530.27,941,1519.48,950.13Z"/><path class="cls-11" d="M1581,991.3c-6.58-11.92-25.42-16.89-37.19-10.1-11.66,1-23.61,5.34-33.63,9.67-19.18,8.28-35.89,21-47.29,38.63-18.51,28.59-10.13,71.54,29,71.35,16.93-.08,29.29-10,39.65-22.32,6.2-7.4,11.76-15.19,18.69-22,7.24-7.08,15.71-12.74,22.82-20C1584.88,1024.49,1589.46,1006.62,1581,991.3Zm-28.61,49.18a158.48,158.48,0,0,0-24,24.76c-9.2,11.65-17.85,22.35-33.33,24.78-16.69,2.61-29.14-7.39-31.21-23.61-2.16-16.94,7.62-34,18.62-45.84,8.63-9.29,19.64-16.71,31.06-22.08,11.78-5.54,23.52-7.26,35.81-8.82,4.15-.18,8.3-.62,12.5.29,8.79,1.91,12.34,10,12.75,18.2C1575.28,1022.53,1562.31,1032.35,1552.4,1040.48Z"/><path class="cls-11" d="M1641.44,937.77c-3.29-6.8-9.24-12.68-16.64-14.73-8.29-2.28-21.52-.49-24.87,8.66-13.1,7-19.89,20.6-14.14,36.32,6.8,18.6,27.19,20.78,43,13S1648.7,952.82,1641.44,937.77Zm-17.26,33.49c-10.82,6.32-24.07,4.8-29.26-7.57-5-11.88,2.28-24.24,13.4-28.76,3.29-1,6.52-2.39,10-2.56,5.3-.25,9.66,3.61,12.46,7.66C1637.89,950.25,1634.82,965.05,1624.18,971.26Z"/><path class="cls-3" d="M1891.81,977.18a5,5,0,0,1-4.56-3L1870.11,935l-39.86,15.58a5,5,0,0,1-6.44-6.44l15.59-39.86-39.2-17.14a5,5,0,0,1,0-9.12l39.2-17.14L1823.81,821a5,5,0,0,1,6.44-6.45l39.86,15.59,17.14-39.2a5,5,0,0,1,9.12,0l17.14,39.2,39.85-15.59a5,5,0,0,1,6.45,6.45l-15.59,39.85,39.2,17.14a5,5,0,0,1,0,9.12l-39.2,17.14,15.35,39.24a5,5,0,0,1-4.35,7.41h0a5,5,0,0,1-1.82-.35L1913.51,935l-17.14,39.19A5,5,0,0,1,1891.81,977.18Zm-19.06-53.53a5,5,0,0,1,4.55,3l14.51,33.15,14.5-33.15a5,5,0,0,1,6.37-2.64l33.72,13.19-13.19-33.73a5,5,0,0,1,2.64-6.37l33.15-14.5-33.15-14.5a5,5,0,0,1-2.64-6.37L1946.4,828l-33.72,13.19a5,5,0,0,1-6.37-2.64l-14.5-33.16-14.51,33.16a5,5,0,0,1-6.37,2.64L1837.22,828l13.18,33.72a5,5,0,0,1-2.63,6.37l-33.16,14.5,33.16,14.5a5,5,0,0,1,2.63,6.37l-13.18,33.73L1870.93,924A4.86,4.86,0,0,1,1872.75,923.65Z"/><path class="cls-14" d="M1652.56,379.06a5,5,0,0,1-3.52-8.49L1702.58,317a5,5,0,0,1,7,7l-53.53,53.53A5,5,0,0,1,1652.56,379.06Z"/><path class="cls-14" d="M1703.8,379.06a5,5,0,0,1-3.52-8.49L1753.82,317a5,5,0,1,1,7,7l-53.53,53.53A5,5,0,0,1,1703.8,379.06Z"/><path class="cls-14" d="M1755,379.06a5,5,0,0,1-3.52-8.49L1805.05,317a5,5,0,1,1,7,7l-53.54,53.53A5,5,0,0,1,1755,379.06Z"/><path class="cls-14" d="M1806.27,379.06a5,5,0,0,1-3.52-8.49L1856.29,317a5,5,0,0,1,7,7l-53.53,53.53A5,5,0,0,1,1806.27,379.06Z"/><path class="cls-14" d="M1857.51,379.06a5,5,0,0,1-3.52-8.49L1907.53,317a5,5,0,1,1,7,7L1861,377.6A5,5,0,0,1,1857.51,379.06Z"/><path class="cls-14" d="M1908.75,379.06a5,5,0,0,1-3.52-8.49L1958.76,317a5,5,0,1,1,7,7l-53.53,53.53A5,5,0,0,1,1908.75,379.06Z"/><path class="cls-14" d="M1960,379.06a5,5,0,0,1-3.51-8.49L2010,317a5,5,0,1,1,7,7L1963.5,377.6A5,5,0,0,1,1960,379.06Z"/><path class="cls-14" d="M2011.22,379.06a5,5,0,0,1-3.52-8.49L2061.24,317a5,5,0,1,1,7,7l-53.53,53.53A5,5,0,0,1,2011.22,379.06Z"/><path class="cls-14" d="M2062.46,379.06a5,5,0,0,1-3.52-8.49L2112.47,317a5,5,0,0,1,7,7L2066,377.6A5,5,0,0,1,2062.46,379.06Z"/><path class="cls-14" d="M2113.7,379.06a5,5,0,0,1-3.52-8.49L2163.71,317a5,5,0,1,1,7,7l-53.54,53.53A5,5,0,0,1,2113.7,379.06Z"/><path class="cls-14" d="M2164.93,379.06a5,5,0,0,1-3.52-8.49L2215,317a5,5,0,1,1,7,7l-53.53,53.53A5,5,0,0,1,2164.93,379.06Z"/><path class="cls-14" d="M2216.17,379.06a5,5,0,0,1-3.52-8.49L2266.18,317a5,5,0,1,1,7,7l-53.54,53.53A5,5,0,0,1,2216.17,379.06Z"/><path class="cls-14" d="M2267.41,379.06a5,5,0,0,1-3.52-8.49L2317.42,317a5,5,0,1,1,7,7l-53.54,53.53A5,5,0,0,1,2267.41,379.06Z"/><path class="cls-14" d="M2318.64,379.06a5,5,0,0,1-3.51-8.49L2368.66,317a5,5,0,1,1,7,7l-53.54,53.53A5,5,0,0,1,2318.64,379.06Z"/><path class="cls-14" d="M2369.88,379.06a5,5,0,0,1-3.52-8.49L2419.9,317a5,5,0,1,1,7,7L2373.4,377.6A5,5,0,0,1,2369.88,379.06Z"/><path class="cls-14" d="M2421.12,379.06a5,5,0,0,1-3.52-8.49L2471.13,317a5,5,0,1,1,7,7l-53.53,53.53A5,5,0,0,1,2421.12,379.06Z"/><rect class="cls-6" x="1732.68" y="418.87" width="278.56" height="7.41"/><rect class="cls-6" x="1732.68" y="433.46" width="278.56" height="7.41"/><rect class="cls-6" x="1732.68" y="448.06" width="278.56" height="7.41"/><rect class="cls-6" x="1732.68" y="462.66" width="278.56" height="7.41"/><rect class="cls-6" x="1732.68" y="477.26" width="278.56" height="7.41"/><rect class="cls-6" x="1732.68" y="491.85" width="278.56" height="7.41"/><rect class="cls-6" x="1732.68" y="506.45" width="278.56" height="7.41"/><rect class="cls-6" x="1732.68" y="521.05" width="278.56" height="7.42"/><rect class="cls-6" x="1732.68" y="535.64" width="278.56" height="7.41"/><rect class="cls-6" x="1732.68" y="550.24" width="278.56" height="7.42"/><rect class="cls-6" x="1732.68" y="564.84" width="278.56" height="7.41"/><rect class="cls-6" x="1732.68" y="579.44" width="278.56" height="7.41"/><rect class="cls-6" x="1732.68" y="594.03" width="278.56" height="7.42"/><rect class="cls-6" x="1732.68" y="608.63" width="278.56" height="7.41"/><rect class="cls-6" x="1732.68" y="623.23" width="278.56" height="7.41"/><rect class="cls-6" x="1732.68" y="637.83" width="278.56" height="7.41"/><path class="cls-11" d="M2657.64,334.92c-12.56-6.49-26.18-1-38.18,3.73a4.29,4.29,0,0,0-2.61,2.92c-1.79,1.06-3.57,2.22-5.37,3.54-13.84,10.17-23.56,22.7-39.59,30.16-27.16,12.63-56.82,19.31-82.39,35.39-9.83,6.18-18.81,14.42-24.32,24.71-6.81,12.74-2.54,28.58-5.85,42.19-.9,3.69-6.53,7.8-9.07,10.35-6.43,6.46-13.08,12.72-19.61,19.09-8.77,8.56-59.71,53.91-30.24,65,18.15,6.8,39.84-11.27,52.82-21.56,23.45-18.6,32.39-47.08,53.28-67.55,18.38-18,44.69-25.51,67-37.07a117.28,117.28,0,0,0,25.13-17.25c9.18-8.33,14.74-19.37,21.78-29.37,7.8-11.11,18-20.09,28.59-28.49,6.92-5.51,14.1-11.62,16.46-20.52C2667.29,343.44,2663.38,337.88,2657.64,334.92Zm-10.54,23.27c-10.71,10.08-22.59,17.93-31.82,29.65-9,11.45-15.24,24.61-26,34.64C2578,433,2563.38,439.54,2549.51,446c-26,12.1-48.79,24.08-65.2,48.48-9.28,13.79-16.42,28.52-28.44,40.31a148.16,148.16,0,0,1-31.06,22.72c-2.4,1.35-20.63,10.2-22.46,3.42-1.37-5,5.4-12.7,8.07-16.32,10.77-14.62,24.37-27.24,37.19-40,10.16-10.13,20.06-18.07,22.62-32.61,1.34-7.64.55-15.52,1.46-23.2,1.06-9,6.41-15.64,12.71-21.78,11.5-11.23,27.56-17.81,42.21-23.75,19.58-7.94,40.14-14,58.58-24.41,15.16-8.58,25-24.32,39.89-31.94,8.37-2,16.3-5.1,25.1-3.21C2660,345.81,2650.63,354.86,2647.1,358.19Z"/><path class="cls-11" d="M786.17,669a44.48,44.48,0,0,0,5.73-24.88c-1-16.33-16-22.27-30-21.2-33-3.09-51,47.88-67.44,69.3-15.19,19.78-43.28,16.47-62.9,29.51-14.69,9.77-21,32.48-4.58,43.09,7.35,4.75,18.5,9,14.47,20-3.5,9.57-15.47,16.38-22.11,23.82-11.82,13.25-9.1,35.1,8.5,41.52,16.74,6.11,38.48-3.28,52.45-12.21,24.35-15.58,28.06-49.06,52.11-64.64,14.27-9.25,32-13.85,42.47-28.13,14.33-19.56-10-34.36-3.73-53.85C773.72,683.2,781.9,676.36,786.17,669ZM769.29,728c3.25,15.65-21.15,25.09-31.48,30.37-9.89,5.05-18.48,10.46-25.71,19-9.89,11.68-15.67,26.43-24.65,38.78-7.46,10.24-17.16,16.28-28.7,20.78-9.25,3.61-25.24,8.14-33.16-.43-15.8-17.13,23.15-35.57,26.64-50.94a21.64,21.64,0,0,0-6-20.54c-5.31-5.09-17.68-8.15-18.89-16-4-26.15,46.39-29.47,61.51-38.2,15.72-9.08,24.17-30.26,32.91-45.17,11.07-18.89,23.17-34.84,45.29-33.83,5.91,1.22,11.15,3.9,13.72,10.2s-.3,14.07-2.73,19.77c-5.13,12-15.88,19.13-18.38,32.46S766.8,716,769.29,728Z"/><ellipse class="cls-15" cx="1171.12" cy="697.51" rx="4.81" ry="4.78"/><ellipse class="cls-15" cx="1196.05" cy="697.51" rx="4.81" ry="4.78"/><path class="cls-15" d="M1225.79,697.51a4.82,4.82,0,1,1-4.81-4.78A4.8,4.8,0,0,1,1225.79,697.51Z"/><path class="cls-15" d="M1250.72,697.51a4.82,4.82,0,1,1-4.82-4.78A4.8,4.8,0,0,1,1250.72,697.51Z"/><ellipse class="cls-15" cx="1270.83" cy="697.51" rx="4.81" ry="4.78"/><path class="cls-15" d="M1300.58,697.51a4.82,4.82,0,1,1-4.82-4.78A4.8,4.8,0,0,1,1300.58,697.51Z"/><path class="cls-15" d="M1325.5,697.51a4.81,4.81,0,1,1-4.81-4.78A4.79,4.79,0,0,1,1325.5,697.51Z"/><path class="cls-15" d="M1350.43,697.51a4.81,4.81,0,1,1-4.81-4.78A4.79,4.79,0,0,1,1350.43,697.51Z"/><ellipse class="cls-15" cx="1370.55" cy="697.51" rx="4.81" ry="4.78"/><path class="cls-15" d="M1400.29,697.51a4.81,4.81,0,1,1-4.81-4.78A4.79,4.79,0,0,1,1400.29,697.51Z"/><path class="cls-15" d="M1425.22,697.51a4.81,4.81,0,1,1-4.81-4.78A4.79,4.79,0,0,1,1425.22,697.51Z"/><path class="cls-15" d="M1450.15,697.51a4.81,4.81,0,1,1-4.81-4.78A4.79,4.79,0,0,1,1450.15,697.51Z"/><ellipse class="cls-15" cx="1470.27" cy="697.51" rx="4.81" ry="4.78"/><path class="cls-15" d="M1500,697.51a4.82,4.82,0,1,1-4.81-4.78A4.79,4.79,0,0,1,1500,697.51Z"/><path class="cls-15" d="M1524.94,697.51a4.81,4.81,0,1,1-4.81-4.78A4.79,4.79,0,0,1,1524.94,697.51Z"/><path class="cls-15" d="M1549.87,697.51a4.82,4.82,0,1,1-4.81-4.78A4.8,4.8,0,0,1,1549.87,697.51Z"/><ellipse class="cls-15" cx="1569.99" cy="697.51" rx="4.81" ry="4.78"/><path class="cls-15" d="M1599.73,697.51a4.82,4.82,0,1,1-4.81-4.78A4.8,4.8,0,0,1,1599.73,697.51Z"/><path class="cls-15" d="M1624.66,697.51a4.82,4.82,0,1,1-4.81-4.78A4.8,4.8,0,0,1,1624.66,697.51Z"/><ellipse class="cls-15" cx="1644.77" cy="697.51" rx="4.81" ry="4.78"/><ellipse class="cls-15" cx="1669.7" cy="697.51" rx="4.81" ry="4.78"/><ellipse class="cls-15" cx="1694.63" cy="697.51" rx="4.81" ry="4.78"/><path class="cls-15" d="M1724.37,697.51a4.81,4.81,0,1,1-4.81-4.78A4.79,4.79,0,0,1,1724.37,697.51Z"/><path class="cls-15" d="M1749.3,697.51a4.81,4.81,0,1,1-4.81-4.78A4.79,4.79,0,0,1,1749.3,697.51Z"/><path class="cls-15" d="M1774.23,697.51a4.81,4.81,0,1,1-4.81-4.78A4.79,4.79,0,0,1,1774.23,697.51Z"/><path class="cls-15" d="M1799.16,697.51a4.81,4.81,0,1,1-4.81-4.78A4.79,4.79,0,0,1,1799.16,697.51Z"/><path class="cls-15" d="M1824.09,697.51a4.81,4.81,0,1,1-4.81-4.78A4.79,4.79,0,0,1,1824.09,697.51Z"/><ellipse class="cls-15" cx="1844.21" cy="697.51" rx="4.81" ry="4.78"/><ellipse class="cls-15" cx="1869.14" cy="697.51" rx="4.81" ry="4.78"/><ellipse class="cls-15" cx="1894.07" cy="697.51" rx="4.81" ry="4.78"/><path class="cls-15" d="M1923.81,697.51a4.82,4.82,0,1,1-4.81-4.78A4.79,4.79,0,0,1,1923.81,697.51Z"/><ellipse class="cls-15" cx="1943.92" cy="697.51" rx="4.81" ry="4.78"/><path class="cls-15" d="M1973.67,697.51a4.82,4.82,0,1,1-4.82-4.78A4.8,4.8,0,0,1,1973.67,697.51Z"/><path class="cls-15" d="M1998.6,697.51a4.82,4.82,0,1,1-4.82-4.78A4.8,4.8,0,0,1,1998.6,697.51Z"/><ellipse class="cls-15" cx="2018.71" cy="697.51" rx="4.81" ry="4.78"/><ellipse class="cls-15" cx="2043.64" cy="697.51" rx="4.81" ry="4.78"/><ellipse class="cls-15" cx="2068.57" cy="697.51" rx="4.81" ry="4.78"/><path class="cls-15" d="M2098.31,697.51a4.81,4.81,0,1,1-4.81-4.78A4.79,4.79,0,0,1,2098.31,697.51Z"/><path class="cls-15" d="M2123.24,697.51a4.81,4.81,0,1,1-4.81-4.78A4.79,4.79,0,0,1,2123.24,697.51Z"/><path class="cls-15" d="M2148.17,697.51a4.81,4.81,0,1,1-4.81-4.78A4.79,4.79,0,0,1,2148.17,697.51Z"/><path class="cls-15" d="M2173.1,697.51a4.81,4.81,0,1,1-4.81-4.78A4.79,4.79,0,0,1,2173.1,697.51Z"/><path class="cls-15" d="M2198,697.51a4.81,4.81,0,1,1-4.81-4.78A4.79,4.79,0,0,1,2198,697.51Z"/><ellipse class="cls-15" cx="2218.15" cy="697.51" rx="4.81" ry="4.78"/><ellipse class="cls-15" cx="2243.08" cy="697.51" rx="4.81" ry="4.78"/><path class="cls-16" d="M754.21,374.08a6.28,6.28,0,1,1-6.28-6.36A6.32,6.32,0,0,1,754.21,374.08Z"/><path class="cls-16" d="M786.75,374.08a6.29,6.29,0,1,1-6.28-6.36A6.33,6.33,0,0,1,786.75,374.08Z"/><path class="cls-16" d="M819.28,374.08a6.28,6.28,0,1,1-6.28-6.36A6.32,6.32,0,0,1,819.28,374.08Z"/><path class="cls-16" d="M851.81,374.08a6.28,6.28,0,1,1-6.28-6.36A6.32,6.32,0,0,1,851.81,374.08Z"/><path class="cls-16" d="M884.34,374.08a6.28,6.28,0,1,1-6.28-6.36A6.32,6.32,0,0,1,884.34,374.08Z"/><path class="cls-16" d="M916.88,374.08a6.28,6.28,0,1,1-6.29-6.36A6.33,6.33,0,0,1,916.88,374.08Z"/><path class="cls-16" d="M949.41,374.08a6.28,6.28,0,1,1-6.28-6.36A6.32,6.32,0,0,1,949.41,374.08Z"/><path class="cls-16" d="M981.94,374.08a6.28,6.28,0,1,1-6.28-6.36A6.32,6.32,0,0,1,981.94,374.08Z"/><path class="cls-16" d="M1014.47,374.08a6.28,6.28,0,1,1-6.28-6.36A6.32,6.32,0,0,1,1014.47,374.08Z"/><path class="cls-16" d="M1047,374.08a6.28,6.28,0,1,1-6.27-6.36A6.32,6.32,0,0,1,1047,374.08Z"/><path class="cls-16" d="M1079.54,374.08a6.28,6.28,0,1,1-6.28-6.36A6.32,6.32,0,0,1,1079.54,374.08Z"/><path class="cls-16" d="M1112.07,374.08a6.28,6.28,0,1,1-6.28-6.36A6.32,6.32,0,0,1,1112.07,374.08Z"/><path class="cls-16" d="M1144.6,374.08a6.28,6.28,0,1,1-6.28-6.36A6.32,6.32,0,0,1,1144.6,374.08Z"/><path class="cls-16" d="M1177.14,374.08a6.29,6.29,0,1,1-6.28-6.36A6.33,6.33,0,0,1,1177.14,374.08Z"/><path class="cls-16" d="M1209.67,374.08a6.28,6.28,0,1,1-6.28-6.36A6.32,6.32,0,0,1,1209.67,374.08Z"/><path class="cls-16" d="M1242.2,374.08a6.28,6.28,0,1,1-6.28-6.36A6.32,6.32,0,0,1,1242.2,374.08Z"/><path class="cls-16" d="M1274.73,374.08a6.28,6.28,0,1,1-6.28-6.36A6.32,6.32,0,0,1,1274.73,374.08Z"/><path class="cls-16" d="M1307.27,374.08a6.29,6.29,0,1,1-6.29-6.36A6.33,6.33,0,0,1,1307.27,374.08Z"/><path class="cls-16" d="M1339.8,374.08a6.28,6.28,0,1,1-6.28-6.36A6.32,6.32,0,0,1,1339.8,374.08Z"/><path class="cls-16" d="M1372.33,374.08a6.28,6.28,0,1,1-6.28-6.36A6.32,6.32,0,0,1,1372.33,374.08Z"/><path class="cls-16" d="M1404.86,374.08a6.28,6.28,0,1,1-6.28-6.36A6.32,6.32,0,0,1,1404.86,374.08Z"/><path class="cls-16" d="M1437.4,374.08a6.29,6.29,0,1,1-6.29-6.36A6.33,6.33,0,0,1,1437.4,374.08Z"/><path class="cls-16" d="M1469.93,374.08a6.28,6.28,0,1,1-6.28-6.36A6.32,6.32,0,0,1,1469.93,374.08Z"/><path class="cls-16" d="M1502.46,374.08a6.28,6.28,0,1,1-6.28-6.36A6.32,6.32,0,0,1,1502.46,374.08Z"/><path class="cls-16" d="M1535,374.08a6.28,6.28,0,1,1-6.28-6.36A6.32,6.32,0,0,1,1535,374.08Z"/><path class="cls-16" d="M1567.52,374.08a6.28,6.28,0,1,1-6.28-6.36A6.32,6.32,0,0,1,1567.52,374.08Z"/><path class="cls-16" d="M1600.06,374.08a6.28,6.28,0,1,1-6.28-6.36A6.32,6.32,0,0,1,1600.06,374.08Z"/><path class="cls-16" d="M1632.59,374.08a6.28,6.28,0,1,1-6.28-6.36A6.32,6.32,0,0,1,1632.59,374.08Z"/><path class="cls-11" d="M2304,1203a3.73,3.73,0,1,1,0-7.46c71.57,0,129.79-58.23,129.79-129.79S2375.55,935.93,2304,935.93a3.73,3.73,0,0,1,0-7.46c75.68,0,137.25,61.57,137.25,137.25S2379.66,1203,2304,1203Z"/><path class="cls-13" d="M2109.33,275.5H1295.62a3.73,3.73,0,1,1,0-7.46h813.71a3.73,3.73,0,1,1,0,7.46Z"/><path class="cls-13" d="M2325.13,275.5H2155.57a3.73,3.73,0,0,1,0-7.46h169.56a3.73,3.73,0,1,1,0,7.46Z"/><rect class="cls-4" x="1646.48" y="1094.33" width="505.55" height="14.93"/><path class="cls-4" d="M1264.15,574.63V623.7H1124v-200h61.38V574.63Z"/><path class="cls-4" d="M1606.21,576.68v47.76H1455.77v-200h150.44v46.14H1516v29h73V544h-73v32.66Z"/><path class="cls-4" d="M1907.2,485V637h-58.15V485H1807.6v-47.9h141.06V485Z"/><path class="cls-4" d="M2222.23,631.22q-42.18,0-68.77-28t-26.59-74.85q0-44.82,25.42-74.05t70.53-29.22q41.74,0,68,27.54t26.29,73.53q0,47.61-26.51,76.32T2222.23,631.22Zm-.29-45.41q15.53,0,22.34-13.55t6.81-49.58q0-52.15-28-52.15-30.18,0-30.18,59.47Q2192.93,585.82,2221.94,585.81Z"/><path class="cls-11" d="M1244.55,581.29v49.07H1104.37V430.41h61.37V581.29Z"/><path class="cls-11" d="M1586.61,583.34V631.1H1436.17v-200h150.44v46.14h-90.23v29h72.95v44.39h-72.95v32.66Z"/><path class="cls-11" d="M1887.61,491.62v152h-58.15v-152H1788v-47.9h141.07v47.9Z"/><path class="cls-11" d="M2202.64,637.88q-42.19,0-68.78-28t-26.58-74.85q0-44.83,25.41-74t70.53-29.22q41.76,0,68.05,27.54t26.29,73.53q0,47.61-26.51,76.32T2202.64,637.88Zm-.29-45.41q15.53,0,22.33-13.55t6.82-49.59q0-52.14-28-52.14-30.18,0-30.18,59.47Q2173.34,592.48,2202.35,592.47Z"/></svg>