<?xml version="1.0" standalone="no"?>
<!DOCTYPE svg PUBLIC "-//W3C//DTD SVG 20010904//EN"
 "http://www.w3.org/TR/2001/REC-SVG-20010904/DTD/svg10.dtd">
<svg version="1.0" xmlns="http://www.w3.org/2000/svg"
 width="221.000000pt" height="250.000000pt" viewBox="0 0 221.000000 250.000000"
 preserveAspectRatio="xMidYMid meet">
<metadata>
Created by potrace 1.16, written by Peter Selinger 2001-2019
</metadata>
<g transform="translate(0.000000,250.000000) scale(0.100000,-0.100000)"
fill="#000000" stroke="none">
<path d="M317 1833 c-14 -13 -6 -43 14 -54 11 -6 46 -9 76 -7 66 4 68 27 -22
-227 -37 -104 -74 -211 -83 -237 -14 -43 -18 -47 -51 -50 -48 -4 -51 -27 -13
-111 60 -131 194 -183 356 -137 83 24 166 135 166 222 0 24 -4 28 -29 28 -16
0 -33 6 -38 13 -12 15 -173 477 -173 495 0 9 124 12 586 12 l585 0 -6 -22 c-4
-13 -22 -66 -41 -118 -19 -52 -56 -158 -83 -235 l-49 -140 -37 -3 -38 -3 7
-45 c17 -129 126 -219 266 -218 87 0 138 16 189 61 49 41 91 121 91 171 0 30
-2 32 -33 32 -32 0 -33 1 -64 93 -18 50 -57 162 -88 248 -30 87 -55 161 -55
166 0 5 14 8 30 5 17 -2 51 -1 76 3 42 6 45 8 42 33 l-3 27 -786 3 c-432 1
-789 -1 -792 -5z m196 -155 c9 -24 43 -119 76 -213 32 -93 62 -178 66 -187 7
-17 -5 -18 -164 -18 -94 0 -171 2 -171 4 0 2 131 379 155 444 8 23 22 12 38
-30z m1293 -173 c41 -116 77 -218 80 -227 5 -17 -7 -18 -166 -18 -160 0 -172
1 -165 18 4 9 35 98 70 197 35 99 69 195 75 213 7 18 17 31 23 29 5 -1 43 -97
83 -212z"/>
<path d="M422 1501 c-35 -102 -66 -194 -69 -203 -5 -17 6 -18 137 -18 131 0
142 1 135 18 -4 9 -36 100 -71 201 -35 101 -65 185 -66 186 -2 1 -32 -81 -66
-184z"/>
<path d="M1712 1659 c-10 -25 -21 -58 -82 -234 -21 -60 -41 -118 -45 -127 -7
-17 4 -18 134 -18 78 0 141 3 141 6 0 7 -132 388 -136 393 -2 2 -8 -7 -12 -20z"/>
<path d="M1051 1118 c-7 -244 -14 -469 -16 -501 l-4 -57 74 0 74 0 -5 103 c-7
169 -24 726 -24 815 l0 82 -43 0 -43 0 -13 -442z"/>
<path d="M1094 483 l-391 -3 -14 -28 c-7 -15 -15 -30 -17 -34 -2 -5 193 -8
432 -8 l436 0 -20 40 c-11 22 -24 39 -28 38 -4 -2 -183 -4 -398 -5z"/>
</g>
</svg>
