<svg id="Layer_1" data-name="Layer 1" xmlns="http://www.w3.org/2000/svg" viewBox="0 0 436.22 436.42"><defs><style>.cls-1{fill:#5e70a2;stroke:#fff;stroke-miterlimit:10;stroke-width:5px;}</style></defs><path class="cls-1" d="M155.58,55.39H366.1c4.41.7,8.87,1.16,13.21,2.14,48.85,11,80.18,40.55,93.58,88.83,1.75,6.29,2.38,12.89,3.53,19.34V376.23c-.27,1.5-.43,3-.81,4.5-2.92,11.22-4.3,23.15-9.08,33.52-21.47,46.51-58.38,71.36-109.66,72.08-64,.9-128,.26-192,.19-24.8,0-47.78-6.71-68-21.12C62.59,441,45.41,407.33,45.3,365.25q-.24-94.32.06-188.63a115,115,0,0,1,2.18-24.25C58.3,103.53,88,72.34,136.2,58.93,142.5,57.17,149.11,56.54,155.58,55.39ZM83.49,271q0,46.72,0,93.45c0,9.86,1,19.59,4.34,29,12.16,34.13,41.58,54.83,78.61,54.9,62.86.12,125.73.21,188.59-.16a91.08,91.08,0,0,0,28-4.35c34.49-11.61,55-41.46,55.08-78.74.08-62.72.2-125.44-.16-188.16a91.48,91.48,0,0,0-4.31-28.07c-11.5-34.31-41.28-55.07-78.26-55.15q-94.5-.24-189,0c-28.26,0-51.12,11.17-67.9,34.06-10.74,14.66-15.08,31.38-15.06,49.41Q83.54,224,83.49,271Z" transform="translate(-42.7 -52.89)"/><path class="cls-1" d="M83.49,271q0-47,0-93.88c0-18,4.32-34.75,15.06-49.41,16.78-22.89,39.64-34,67.9-34.06q94.5-.09,189,0c37,.08,66.76,20.84,78.26,55.15A91.48,91.48,0,0,1,438,176.88c.36,62.72.24,125.44.16,188.16,0,37.28-20.59,67.13-55.08,78.74a91.08,91.08,0,0,1-28,4.35c-62.86.37-125.73.28-188.59.16-37-.07-66.45-20.77-78.61-54.9-3.34-9.37-4.33-19.1-4.34-29Q83.44,317.7,83.49,271Zm177.42,111.1C322,382,372.17,331.71,372,270.79S322,160,261,159.86s-111.21,50-111.25,111.07S199.92,382.17,260.91,382.08ZM376.52,127.56a28.16,28.16,0,0,0-28,27.81c-.12,15.29,12.74,28.13,28.16,28.08a27.95,27.95,0,1,0-.18-55.89Z" transform="translate(-42.7 -52.89)"/><path class="cls-1" d="M260.91,382.08c-61,.09-111.23-50.13-111.18-111.15S200,159.68,261,159.86s110.75,49.92,111,110.93S322,382,260.91,382.08Zm72.71-111a72.78,72.78,0,1,0-72.86,72.71A72.86,72.86,0,0,0,333.62,271Z" transform="translate(-42.7 -52.89)"/><path class="cls-1" d="M376.52,127.56a27.95,27.95,0,1,1,.18,55.89c-15.42.05-28.28-12.79-28.16-28.08A28.16,28.16,0,0,1,376.52,127.56Z" transform="translate(-42.7 -52.89)"/><path class="cls-1" d="M333.62,271a72.78,72.78,0,1,1-72.7-72.85A72.87,72.87,0,0,1,333.62,271Z" transform="translate(-42.7 -52.89)"/></svg>