<?xml version="1.0" standalone="no"?>
<!DOCTYPE svg PUBLIC "-//W3C//DTD SVG 20010904//EN"
 "http://www.w3.org/TR/2001/REC-SVG-20010904/DTD/svg10.dtd">
<svg version="1.0" xmlns="http://www.w3.org/2000/svg"
 width="231.000000pt" height="256.000000pt" viewBox="0 0 231.000000 256.000000"
 preserveAspectRatio="xMidYMid meet">
<metadata>
Created by potrace 1.16, written by Peter Selinger 2001-2019
</metadata>
<g transform="translate(0.000000,256.000000) scale(0.100000,-0.100000)"
fill="#000000" stroke="none">
<path d="M745 2034 c-80 -24 -155 -81 -202 -152 -56 -83 -73 -144 -73 -258 0
-82 -2 -95 -19 -104 -11 -5 -23 -20 -27 -32 -3 -12 -21 -36 -39 -52 -55 -53
-69 -190 -29 -269 43 -82 149 -164 278 -213 42 -16 76 -31 76 -34 0 -3 -55
-24 -122 -47 -138 -47 -158 -63 -177 -154 -26 -120 -7 -233 49 -293 37 -40 41
-41 103 -41 55 0 75 6 149 43 48 23 164 94 260 158 95 64 178 116 183 117 6 0
88 -52 182 -116 283 -190 397 -235 483 -190 77 39 114 206 75 339 -16 57 -47
104 -69 104 -18 0 -216 73 -216 80 0 3 37 22 82 40 147 61 224 124 268 222 36
79 19 199 -36 256 -19 19 -34 41 -34 48 0 8 -9 19 -20 26 -17 11 -20 24 -20
89 0 203 -74 335 -230 412 -125 61 -274 36 -376 -65 -23 -22 -50 -58 -59 -79
-10 -21 -21 -39 -24 -39 -3 0 -18 22 -33 49 -73 129 -243 198 -383 155z m250
-69 c36 -24 70 -60 97 -101 34 -52 47 -64 68 -64 20 0 30 8 42 33 25 50 85
114 136 145 42 24 56 27 142 27 114 0 137 -10 226 -99 86 -87 108 -145 109
-294 l0 -114 -75 -71 c-42 -40 -90 -80 -108 -90 l-32 -18 0 70 c0 38 -4 81
-10 95 -16 44 -104 74 -127 44 -6 -7 -18 -38 -27 -68 -51 -162 -200 -292 -511
-446 l-151 -74 -69 23 c-192 66 -310 162 -336 275 -9 42 0 38 43 -18 44 -58
110 -105 135 -95 16 6 15 9 -12 28 -95 68 -167 175 -150 223 15 42 28 38 49
-14 23 -53 107 -142 137 -142 29 0 23 13 -20 48 -55 45 -101 118 -101 162 0
20 3 40 7 43 3 4 40 -26 82 -66 70 -67 172 -137 200 -137 7 0 11 32 11 98 0
103 3 113 37 131 35 18 39 14 56 -46 9 -32 35 -86 57 -120 50 -76 148 -169
163 -154 7 7 -9 32 -54 78 -76 80 -106 125 -134 207 -25 73 -40 84 -94 68 -53
-16 -63 -38 -65 -134 0 -43 -4 -78 -7 -78 -12 0 -123 87 -156 121 -17 19 -37
47 -42 62 -16 43 -13 186 5 248 35 115 128 216 233 250 14 5 63 7 108 6 77 -3
86 -6 138 -42z m546 -474 c23 -18 24 -25 23 -120 -1 -70 2 -101 10 -101 27 0
124 67 195 136 43 41 81 74 85 74 3 0 6 -19 6 -43 0 -53 -39 -120 -99 -167
-40 -32 -45 -50 -15 -50 27 0 121 104 135 148 13 45 18 49 37 30 36 -36 -20
-149 -107 -215 -49 -37 -64 -63 -38 -63 22 0 92 55 127 99 38 46 54 45 38 -2
-13 -38 -50 -90 -92 -129 -41 -37 -165 -100 -251 -128 -195 -63 -309 -123
-604 -318 -216 -143 -347 -217 -404 -227 -52 -10 -104 16 -123 61 -30 72 -37
143 -20 224 9 41 22 80 29 87 7 7 62 30 123 51 297 104 587 259 722 385 66 62
125 149 148 220 9 29 19 55 21 60 7 13 30 8 54 -12z m137 -636 c68 -24 134
-51 146 -59 52 -33 69 -219 28 -309 -16 -37 -30 -51 -58 -63 -49 -21 -86 -13
-187 39 -79 41 -416 257 -417 267 -1 19 306 170 345 170 11 0 76 -20 143 -45z"/>
<path d="M733 1974 c-23 -9 -62 -33 -87 -56 -84 -74 -126 -173 -126 -303 0
-112 11 -136 93 -204 l72 -60 7 71 c5 45 14 78 25 91 42 46 117 62 145 30 8
-10 23 -43 32 -73 26 -80 63 -137 133 -206 64 -62 73 -80 51 -102 -17 -17 -21
-16 -77 28 -79 62 -156 181 -187 288 -3 10 -9 10 -24 2 -18 -10 -20 -21 -20
-116 0 -89 -3 -106 -17 -111 -28 -11 -141 57 -214 130 -56 55 -69 64 -69 46 0
-38 31 -88 86 -138 30 -27 54 -54 54 -59 0 -5 -9 -17 -19 -27 -19 -16 -21 -16
-49 3 -43 31 -112 109 -127 145 -9 19 -14 25 -15 14 -1 -49 61 -132 158 -209
26 -21 27 -31 7 -48 -23 -19 -62 -4 -117 48 -63 58 -47 20 17 -42 64 -63 239
-146 306 -146 28 0 301 137 381 191 149 101 231 196 264 307 26 87 67 111 132
78 51 -26 65 -52 71 -125 l6 -69 54 41 c30 23 68 59 85 80 29 37 31 42 31 135
0 113 -20 182 -71 253 -60 82 -148 129 -242 129 -101 0 -187 -44 -232 -119
-46 -77 -60 -91 -90 -91 -20 0 -35 8 -47 26 -98 141 -163 185 -272 183 -36 0
-85 -7 -108 -15z m867 -64 c50 -25 104 -81 129 -132 26 -55 26 -74 1 -88 -27
-14 -36 -8 -64 48 -32 62 -70 97 -131 119 -52 19 -67 42 -44 69 14 17 55 11
109 -16z"/>
<path d="M1485 1437 c-23 -70 -94 -175 -158 -233 -144 -130 -505 -318 -771
-400 -37 -12 -64 -27 -74 -42 -20 -31 -28 -169 -13 -237 15 -67 38 -88 94 -88
66 1 164 54 437 233 266 175 381 236 565 300 164 58 230 93 292 157 70 72 68
89 -3 23 -43 -39 -63 -50 -83 -48 -45 5 -39 41 13 80 74 57 126 131 126 180 0
18 -5 12 -22 -21 -22 -44 -81 -109 -126 -139 -21 -14 -25 -13 -45 6 l-21 22
61 62 c66 69 83 95 83 130 0 21 -8 16 -63 -37 -76 -72 -179 -138 -210 -133
-21 3 -22 7 -19 78 3 96 -4 137 -27 150 -17 8 -21 3 -36 -43z"/>
<path d="M1447 850 c-77 -33 -217 -111 -217 -121 0 -3 64 -49 143 -101 275
-184 389 -227 442 -166 34 40 50 142 35 223 -7 36 -20 74 -29 85 -16 19 -260
111 -290 109 -9 0 -47 -14 -84 -29z"/>
</g>
</svg>
